<svg xmlns="http://www.w3.org/2000/svg" xmlns:xlink="http://www.w3.org/1999/xlink" xmlns:lucid="lucid" width="1700" height="1037"><g transform="translate(1700 1297)" lucid:page-tab-id="0_0"><path d="M-1696-1296H64V64h-1760z" fill="#fff"/><path d="M-340-1129h240v60h-240z" fill="none"/><use xlink:href="#a" transform="matrix(1,0,0,1,-340,-1129) translate(77.525 33.6)"/><path d="M-440-1135h280v320h-280z" stroke="#000" stroke-width="2" fill="#fff"/><path d="M-440-1097h280m-280 84h280" stroke="#000" stroke-width="2" fill="none"/><use xlink:href="#b" transform="matrix(1,0,0,1,-432,-1135) translate(86.07499999999999 22.6)"/><use xlink:href="#c" transform="matrix(1,0,0,1,-428,-1089.4) translate(0 16.5)"/><use xlink:href="#d" transform="matrix(1,0,0,1,-428,-1089.4) translate(10.95 16.5)"/><use xlink:href="#c" transform="matrix(1,0,0,1,-428,-1089.4) translate(0 38.1)"/><use xlink:href="#e" transform="matrix(1,0,0,1,-428,-1089.4) translate(10.95 38.1)"/><use xlink:href="#c" transform="matrix(1,0,0,1,-428,-1089.4) translate(0 59.7)"/><use xlink:href="#f" transform="matrix(1,0,0,1,-428,-1089.4) translate(10.95 59.7)"/><use xlink:href="#g" transform="matrix(1,0,0,1,-428,-1004.7637982195847) translate(0 19.000000000000007)"/><use xlink:href="#h" transform="matrix(1,0,0,1,-428,-1004.7637982195847) translate(0 40.60000000000001)"/><use xlink:href="#i" transform="matrix(1,0,0,1,-428,-1004.7637982195847) translate(15.5 40.60000000000001)"/><use xlink:href="#j" transform="matrix(1,0,0,1,-428,-1004.7637982195847) translate(0 62.20000000000001)"/><use xlink:href="#k" transform="matrix(1,0,0,1,-428,-1004.7637982195847) translate(20.95 62.20000000000001)"/><use xlink:href="#l" transform="matrix(1,0,0,1,-428,-1004.7637982195847) translate(0 83.80000000000003)"/><use xlink:href="#m" transform="matrix(1,0,0,1,-428,-1004.7637982195847) translate(15.5 83.80000000000003)"/><use xlink:href="#n" transform="matrix(1,0,0,1,-428,-1004.7637982195847) translate(0 105.40000000000002)"/><use xlink:href="#l" transform="matrix(1,0,0,1,-428,-1004.7637982195847) translate(0 127.00000000000001)"/><use xlink:href="#o" transform="matrix(1,0,0,1,-428,-1004.7637982195847) translate(15.5 127.00000000000001)"/><use xlink:href="#p" transform="matrix(1,0,0,1,-428,-1004.7637982195847) translate(0 148.6)"/><use xlink:href="#l" transform="matrix(1,0,0,1,-428,-1004.7637982195847) translate(0 170.20000000000002)"/><use xlink:href="#q" transform="matrix(1,0,0,1,-428,-1004.7637982195847) translate(15.5 170.20000000000002)"/><path d="M-580-740h180v200h-180z" stroke="#000" stroke-width="2" fill="#fff"/><path d="M-580-702h180m-180 110h180" stroke="#000" stroke-width="2" fill="none"/><use xlink:href="#r" transform="matrix(1,0,0,1,-572,-740) translate(64.025 22.6)"/><use xlink:href="#s" transform="matrix(1,0,0,1,-568,-694.4) translate(0 29.5)"/><use xlink:href="#t" transform="matrix(1,0,0,1,-568,-694.4) translate(10.95 29.5)"/><use xlink:href="#s" transform="matrix(1,0,0,1,-568,-694.4) translate(0 51.1)"/><use xlink:href="#u" transform="matrix(1,0,0,1,-568,-694.4) translate(10.95 51.1)"/><use xlink:href="#s" transform="matrix(1,0,0,1,-568,-694.4) translate(0 72.7)"/><use xlink:href="#v" transform="matrix(1,0,0,1,-568,-694.4) translate(10.95 72.7)"/><use xlink:href="#w" transform="matrix(1,0,0,1,-568,-694.4) translate(60.900000000000006 72.7)"/><use xlink:href="#l" transform="matrix(1,0,0,1,-568,-583.5729729729729) translate(0 21.6)"/><use xlink:href="#x" transform="matrix(1,0,0,1,-568,-583.5729729729729) translate(15.5 21.6)"/><path d="M-380-740h160v200h-160z" stroke="#000" stroke-width="2" fill="#fff"/><path d="M-380-702h160m-160 81h160" stroke="#000" stroke-width="2" fill="none"/><use xlink:href="#y" transform="matrix(1,0,0,1,-372,-740) translate(50.525 22.6)"/><use xlink:href="#s" transform="matrix(1,0,0,1,-368,-694.4) translate(0 36.6)"/><use xlink:href="#z" transform="matrix(1,0,0,1,-368,-694.4) translate(10.95 36.6)"/><use xlink:href="#l" transform="matrix(1,0,0,1,-368,-613.1999999999999) translate(0 36.6)"/><use xlink:href="#x" transform="matrix(1,0,0,1,-368,-613.1999999999999) translate(15.5 36.6)"/><path d="M-200-740h180v200h-180z" stroke="#000" stroke-width="2" fill="#fff"/><path d="M-200-702h180m-180 81h180" stroke="#000" stroke-width="2" fill="none"/><use xlink:href="#A" transform="matrix(1,0,0,1,-192,-740) translate(27.799999999999997 22.6)"/><use xlink:href="#B" transform="matrix(1,0,0,1,-192,-740) translate(78.4 22.6)"/><use xlink:href="#s" transform="matrix(1,0,0,1,-188,-694.4) translate(0 36.6)"/><use xlink:href="#C" transform="matrix(1,0,0,1,-188,-694.4) translate(10.95 36.6)"/><use xlink:href="#l" transform="matrix(1,0,0,1,-188,-613.1999999999999) translate(0 36.6)"/><use xlink:href="#x" transform="matrix(1,0,0,1,-188,-613.1999999999999) translate(15.5 36.6)"/><path d="M-200-460h180v180h-180z" stroke="#000" stroke-width="2" fill="#fff"/><path d="M-200-422h180m-180 71h180" stroke="#000" stroke-width="2" fill="none"/><use xlink:href="#A" transform="matrix(1,0,0,1,-192,-460) translate(43.75 22.6)"/><use xlink:href="#D" transform="matrix(1,0,0,1,-192,-460) translate(94.35 22.6)"/><use xlink:href="#l" transform="matrix(1,0,0,1,-188,-343.2) translate(0 31.6)"/><use xlink:href="#x" transform="matrix(1,0,0,1,-188,-343.2) translate(15.5 31.6)"/><path d="M-490-741v-36.5h190v-12.54" stroke="#000" stroke-width="2" fill="none"/><path d="M-489-740h-2v-1h2z"/><path d="M-287.27-790.52h-25.46l12.73-21.52z" fill="#fff"/><path d="M-285.52-789.52h-28.96L-300-814zm-25.45-2h21.94L-300-810.07z"/><path d="M-300-741v-49.04" stroke="#000" stroke-width="2" fill="none"/><path d="M-299-740h-2v-1h2z"/><path d="M-287.27-790.52h-25.46l12.73-21.52z" fill="#fff"/><path d="M-285.52-789.52h-28.96L-300-814zm-25.45-2h21.94L-300-810.07z"/><path d="M-110-741v-36.5h-190v-12.54" stroke="#000" stroke-width="2" fill="none"/><path d="M-109-740h-2v-1h2z"/><path d="M-287.27-790.52h-25.46l12.73-21.52z" fill="#fff"/><path d="M-285.52-789.52h-28.96L-300-814zm-25.45-2h21.94L-300-810.07z"/><path d="M-110-461v-54.04" stroke="#000" stroke-width="2" fill="none"/><path d="M-109-460h-2v-1h2z"/><path d="M-97.27-515.52h-25.46l12.73-21.52z" fill="#fff"/><path d="M-95.52-514.52h-28.96L-110-539zm-25.45-2h21.94L-110-535.07z"/><path d="M-1640-1245h320v540h-320z" stroke="#000" stroke-width="2" fill="#fff"/><path d="M-1640-1207h320m-320 64h320" stroke="#000" stroke-width="2" fill="none"/><use xlink:href="#E" transform="matrix(1,0,0,1,-1632,-1245) translate(116.57499999999999 22.6)"/><use xlink:href="#s" transform="matrix(1,0,0,1,-1628,-1199.4) translate(0 17.299999999999997)"/><use xlink:href="#F" transform="matrix(1,0,0,1,-1628,-1199.4) translate(10.95 17.299999999999997)"/><use xlink:href="#s" transform="matrix(1,0,0,1,-1628,-1199.4) translate(0 38.9)"/><use xlink:href="#G" transform="matrix(1,0,0,1,-1628,-1199.4) translate(10.95 38.9)"/><use xlink:href="#H" transform="matrix(1,0,0,1,-1628,-1135.3006896551724) translate(0 31.499999999999964)"/><use xlink:href="#l" transform="matrix(1,0,0,1,-1628,-1135.3006896551724) translate(0 53.099999999999966)"/><use xlink:href="#I" transform="matrix(1,0,0,1,-1628,-1135.3006896551724) translate(15.5 53.099999999999966)"/><use xlink:href="#J" transform="matrix(1,0,0,1,-1628,-1135.3006896551724) translate(0 74.69999999999997)"/><use xlink:href="#l" transform="matrix(1,0,0,1,-1628,-1135.3006896551724) translate(0 96.29999999999998)"/><use xlink:href="#K" transform="matrix(1,0,0,1,-1628,-1135.3006896551724) translate(15.5 96.29999999999998)"/><use xlink:href="#L" transform="matrix(1,0,0,1,-1628,-1135.3006896551724) translate(0 117.89999999999998)"/><use xlink:href="#l" transform="matrix(1,0,0,1,-1628,-1135.3006896551724) translate(0 139.49999999999997)"/><use xlink:href="#M" transform="matrix(1,0,0,1,-1628,-1135.3006896551724) translate(15.5 139.49999999999997)"/><use xlink:href="#l" transform="matrix(1,0,0,1,-1628,-1135.3006896551724) translate(0 161.09999999999997)"/><use xlink:href="#N" transform="matrix(1,0,0,1,-1628,-1135.3006896551724) translate(15.5 161.09999999999997)"/><use xlink:href="#O" transform="matrix(1,0,0,1,-1628,-1135.3006896551724) translate(0 182.69999999999996)"/><use xlink:href="#l" transform="matrix(1,0,0,1,-1628,-1135.3006896551724) translate(0 204.29999999999995)"/><use xlink:href="#P" transform="matrix(1,0,0,1,-1628,-1135.3006896551724) translate(15.5 204.29999999999995)"/><use xlink:href="#l" transform="matrix(1,0,0,1,-1628,-1135.3006896551724) translate(0 225.89999999999995)"/><use xlink:href="#Q" transform="matrix(1,0,0,1,-1628,-1135.3006896551724) translate(15.5 225.89999999999995)"/><use xlink:href="#l" transform="matrix(1,0,0,1,-1628,-1135.3006896551724) translate(0 247.49999999999994)"/><use xlink:href="#R" transform="matrix(1,0,0,1,-1628,-1135.3006896551724) translate(15.5 247.49999999999994)"/><use xlink:href="#S" transform="matrix(1,0,0,1,-1628,-1135.3006896551724) translate(0 269.0999999999999)"/><use xlink:href="#l" transform="matrix(1,0,0,1,-1628,-1135.3006896551724) translate(0 290.69999999999993)"/><use xlink:href="#T" transform="matrix(1,0,0,1,-1628,-1135.3006896551724) translate(15.5 290.69999999999993)"/><use xlink:href="#l" transform="matrix(1,0,0,1,-1628,-1135.3006896551724) translate(0 312.29999999999995)"/><use xlink:href="#U" transform="matrix(1,0,0,1,-1628,-1135.3006896551724) translate(15.5 312.29999999999995)"/><use xlink:href="#V" transform="matrix(1,0,0,1,-1628,-1135.3006896551724) translate(0 333.9)"/><use xlink:href="#l" transform="matrix(1,0,0,1,-1628,-1135.3006896551724) translate(0 355.5)"/><use xlink:href="#W" transform="matrix(1,0,0,1,-1628,-1135.3006896551724) translate(15.5 355.5)"/><use xlink:href="#X" transform="matrix(1,0,0,1,-1628,-1135.3006896551724) translate(0 377.1)"/><use xlink:href="#l" transform="matrix(1,0,0,1,-1628,-1135.3006896551724) translate(0 398.70000000000005)"/><use xlink:href="#Y" transform="matrix(1,0,0,1,-1628,-1135.3006896551724) translate(15.5 398.70000000000005)"/><use xlink:href="#Z" transform="matrix(1,0,0,1,-1628,-1135.3006896551724) translate(172.25 398.70000000000005)"/><path d="M-1319-975h40v-200h1160v200h-21.76" stroke="#000" stroke-width="2" fill="none"/><path d="M-1319-974h-1v-2h1zM-141.5-970.36l-14.26-4.64 14.26-4.64z"/><path d="M-140.5-969l-18.5-6 18.5-6zm-12.03-6l10.03 3.26v-6.52z"/><g><use xlink:href="#aa" transform="matrix(1,0,0,1,-139.09876543209876,-1016.482505796191) translate(0 24.888888888888893)"/></g><path d="M-1240-920h260v160h-260z" stroke="#000" stroke-width="2" fill="#fff"/><path d="M-1240-882h260m-260 47h260" stroke="#000" stroke-width="2" fill="none"/><g><use xlink:href="#ab" transform="matrix(1,0,0,1,-1232,-920) translate(89.075 22.6)"/></g><g><use xlink:href="#n" transform="matrix(1,0,0,1,-1228,-826.8561983471075) translate(0 22.299999999999997)"/><use xlink:href="#h" transform="matrix(1,0,0,1,-1228,-826.8561983471075) translate(0 43.9)"/><use xlink:href="#ac" transform="matrix(1,0,0,1,-1228,-826.8561983471075) translate(15.5 43.9)"/><use xlink:href="#ad" transform="matrix(1,0,0,1,-1228,-826.8561983471075) translate(148.35000000000002 43.9)"/></g><path d="M-1120-580h260v160h-260z" stroke="#000" stroke-width="2" fill="#fff"/><path d="M-1120-542h260m-260 61h260" stroke="#000" stroke-width="2" fill="none"/><g><use xlink:href="#ae" transform="matrix(1,0,0,1,-1112,-580) translate(92.55 22.6)"/></g><g><use xlink:href="#h" transform="matrix(1,0,0,1,-1108,-473.2) translate(0 26.6)"/><use xlink:href="#ac" transform="matrix(1,0,0,1,-1108,-473.2) translate(15.5 26.6)"/><use xlink:href="#ad" transform="matrix(1,0,0,1,-1108,-473.2) translate(148.35000000000002 26.6)"/></g><path d="M-840-580h240v160h-240z" stroke="#000" stroke-width="2" fill="#fff"/><path d="M-840-542h240m-240 61h240" stroke="#000" stroke-width="2" fill="none"/><g><use xlink:href="#af" transform="matrix(1,0,0,1,-832,-580) translate(61.574999999999996 22.6)"/><use xlink:href="#ag" transform="matrix(1,0,0,1,-832,-580) translate(102.525 22.6)"/></g><g><use xlink:href="#h" transform="matrix(1,0,0,1,-828,-473.2) translate(0 26.6)"/><use xlink:href="#ac" transform="matrix(1,0,0,1,-828,-473.2) translate(15.5 26.6)"/><use xlink:href="#ad" transform="matrix(1,0,0,1,-828,-473.2) translate(148.35000000000002 26.6)"/></g><path d="M-1400-580h240v160h-240z" stroke="#000" stroke-width="2" fill="#fff"/><path d="M-1400-542h240m-240 61h240" stroke="#000" stroke-width="2" fill="none"/><g><use xlink:href="#ah" transform="matrix(1,0,0,1,-1392,-580) translate(28.14999999999999 22.6)"/><use xlink:href="#ai" transform="matrix(1,0,0,1,-1392,-580) translate(94.05 22.6)"/><use xlink:href="#aj" transform="matrix(1,0,0,1,-1392,-580) translate(128.05 22.6)"/></g><g><use xlink:href="#s" transform="matrix(1,0,0,1,-1388,-534.4) translate(0 26.6)"/><use xlink:href="#ak" transform="matrix(1,0,0,1,-1388,-534.4) translate(10.95 26.6)"/></g><g><use xlink:href="#h" transform="matrix(1,0,0,1,-1388,-473.2) translate(0 26.6)"/><use xlink:href="#ac" transform="matrix(1,0,0,1,-1388,-473.2) translate(15.5 26.6)"/><use xlink:href="#ad" transform="matrix(1,0,0,1,-1388,-473.2) translate(148.35000000000002 26.6)"/></g><path d="M-1680-580h240v160h-240z" stroke="#000" stroke-width="2" fill="#fff"/><path d="M-1680-542h240m-240 61h240" stroke="#000" stroke-width="2" fill="none"/><g><use xlink:href="#ah" transform="matrix(1,0,0,1,-1672,-580) translate(29.125 22.6)"/><use xlink:href="#ai" transform="matrix(1,0,0,1,-1672,-580) translate(95.025 22.6)"/><use xlink:href="#al" transform="matrix(1,0,0,1,-1672,-580) translate(129.025 22.6)"/></g><g><use xlink:href="#s" transform="matrix(1,0,0,1,-1668,-534.4) translate(0 26.6)"/><use xlink:href="#am" transform="matrix(1,0,0,1,-1668,-534.4) translate(10.95 26.6)"/></g><g><use xlink:href="#h" transform="matrix(1,0,0,1,-1668,-473.2) translate(0 26.6)"/><use xlink:href="#ac" transform="matrix(1,0,0,1,-1668,-473.2) translate(15.5 26.6)"/><use xlink:href="#ad" transform="matrix(1,0,0,1,-1668,-473.2) translate(148.35000000000002 26.6)"/></g><path d="M-441-975h-269v135h-250.76" stroke="#000" stroke-width="2" fill="none"/><path d="M-440-974h-1v-2h1zM-961.5-835.36l-14.26-4.64 14.26-4.64z"/><path d="M-960.5-834l-18.5-6 18.5-6zm-12.03-6l10.03 3.26v-6.52z"/><g><use xlink:href="#an" transform="matrix(1,0,0,1,-959.4142092740135,-876) translate(0 21.333333333333336)"/></g><path d="M-720-581v-89h-390v-65.04" fill="none"/><path d="M-719-581c0 .55-.45 1-1 1s-1-.45-1-1 .45-1 1-1 1 .45 1 1zm0-8c0 .55-.45 1-1 1s-1-.45-1-1 .45-1 1-1 1 .45 1 1zm0-8c0 .55-.45 1-1 1s-1-.45-1-1 .45-1 1-1 1 .45 1 1zm0-8c0 .55-.45 1-1 1s-1-.45-1-1 .45-1 1-1 1 .45 1 1zm0-8c0 .55-.45 1-1 1s-1-.45-1-1 .45-1 1-1 1 .45 1 1zm0-8c0 .55-.45 1-1 1s-1-.45-1-1 .45-1 1-1 1 .45 1 1zm0-8c0 .55-.45 1-1 1s-1-.45-1-1c0-.56.45-1 1-1s1 .44 1 1zm0-8c0 .55-.45 1-1 1s-1-.45-1-1c0-.56.45-1 1-1s1 .44 1 1zm0-8c0 .55-.45 1-1 1s-1-.45-1-1c0-.56.45-1 1-1s1 .44 1 1zm0-8c0 .55-.45 1-1 1s-1-.45-1-1c0-.56.45-1 1-1s1 .44 1 1zm0-8c0 .55-.45 1-1 1s-1-.45-1-1c0-.56.45-1 1-1s1 .44 1 1zm0-8c0 .55-.45 1-1 1s-1-.45-1-1c0-.56.45-1 1-1s1 .44 1 1zm-7-1c0 .55-.45 1-1 1-.56 0-1-.45-1-1s.44-1 1-1c.55 0 1 .45 1 1zm-8 0c0 .55-.45 1-1 1-.56 0-1-.45-1-1s.44-1 1-1c.55 0 1 .45 1 1zm-8 0c0 .55-.46 1-1 1-.56 0-1-.45-1-1s.44-1 1-1c.54 0 1 .45 1 1zm-8 0c0 .55-.46 1-1 1-.56 0-1-.45-1-1s.44-1 1-1c.54 0 1 .45 1 1zm-8 0c0 .55-.46 1-1 1-.56 0-1-.45-1-1s.44-1 1-1c.54 0 1 .45 1 1zm-8 0c0 .55-.46 1-1 1-.56 0-1-.45-1-1s.44-1 1-1c.54 0 1 .45 1 1zm-8 0c0 .55-.46 1-1 1-.56 0-1-.45-1-1s.44-1 1-1c.54 0 1 .45 1 1zm-8 0c0 .55-.46 1-1 1-.56 0-1-.45-1-1s.44-1 1-1c.54 0 1 .45 1 1zm-8 0c0 .55-.46 1-1 1-.56 0-1-.45-1-1s.44-1 1-1c.54 0 1 .45 1 1zm-8 0c0 .55-.46 1-1 1-.56 0-1-.45-1-1s.44-1 1-1c.54 0 1 .45 1 1zm-8 0c0 .55-.46 1-1 1-.56 0-1-.45-1-1s.44-1 1-1c.54 0 1 .45 1 1zm-8 0c0 .55-.46 1-1 1-.56 0-1-.45-1-1s.44-1 1-1c.54 0 1 .45 1 1zm-8 0c0 .55-.46 1-1 1-.56 0-1-.45-1-1s.44-1 1-1c.54 0 1 .45 1 1zm-8 0c0 .55-.46 1-1 1-.57 0-1-.45-1-1s.43-1 1-1c.54 0 1 .45 1 1zm-8 0c0 .55-.46 1-1 1-.57 0-1-.45-1-1s.43-1 1-1c.54 0 1 .45 1 1zm-8 0c0 .55-.46 1-1 1-.57 0-1-.45-1-1s.43-1 1-1c.54 0 1 .45 1 1zm-8 0c0 .55-.46 1-1 1-.57 0-1-.45-1-1s.43-1 1-1c.54 0 1 .45 1 1zm-8.02 0c0 .55-.44 1-1 1-.55 0-1-.45-1-1s.45-1 1-1c.56 0 1 .45 1 1zm-8 0c0 .55-.44 1-1 1-.55 0-1-.45-1-1s.45-1 1-1c.56 0 1 .45 1 1zm-8 0c0 .55-.44 1-1 1-.55 0-1-.45-1-1s.45-1 1-1c.56 0 1 .45 1 1zm-8 0c0 .55-.44 1-1 1-.55 0-1-.45-1-1s.45-1 1-1c.56 0 1 .45 1 1zm-8 0c0 .55-.44 1-1 1-.55 0-1-.45-1-1s.45-1 1-1c.56 0 1 .45 1 1zm-8 0c0 .55-.45 1-1 1s-1-.45-1-1 .45-1 1-1 1 .45 1 1zm-8 0c0 .55-.45 1-1 1s-1-.45-1-1 .45-1 1-1 1 .45 1 1zm-8 0c0 .55-.45 1-1 1s-1-.45-1-1 .45-1 1-1 1 .45 1 1zm-8 0c0 .55-.45 1-1 1s-1-.45-1-1 .45-1 1-1 1 .45 1 1zm-8 0c0 .55-.45 1-1 1s-1-.45-1-1 .45-1 1-1 1 .45 1 1zm-8 0c0 .55-.45 1-1 1s-1-.45-1-1 .45-1 1-1 1 .45 1 1zm-8 0c0 .55-.45 1-1 1s-1-.45-1-1 .45-1 1-1 1 .45 1 1zm-8 0c0 .55-.45 1-1 1s-1-.45-1-1 .45-1 1-1 1 .45 1 1zm-8 0c0 .55-.45 1-1 1s-1-.45-1-1 .45-1 1-1 1 .45 1 1zm-8 0c0 .55-.45 1-1 1s-1-.45-1-1 .45-1 1-1 1 .45 1 1zm-8 0c0 .55-.45 1-1 1-.56 0-1-.45-1-1s.44-1 1-1c.55 0 1 .45 1 1zm-8 0c0 .55-.45 1-1 1-.56 0-1-.45-1-1s.44-1 1-1c.55 0 1 .45 1 1zm-8 0c0 .55-.45 1-1 1-.56 0-1-.45-1-1s.44-1 1-1c.55 0 1 .45 1 1zm-8 0c0 .55-.45 1-1 1-.56 0-1-.45-1-1s.44-1 1-1c.55 0 1 .45 1 1zm-8 0c0 .55-.45 1-1 1-.56 0-1-.45-1-1s.44-1 1-1c.55 0 1 .45 1 1zm-8 0c0 .55-.45 1-1 1-.56 0-1-.45-1-1s.44-1 1-1c.55 0 1 .45 1 1zm-8 0c0 .55-.45 1-1 1-.56 0-1-.45-1-1s.44-1 1-1c.55 0 1 .45 1 1zm-8 0c0 .55-.45 1-1 1-.56 0-1-.45-1-1s.44-1 1-1c.55 0 1 .45 1 1zm-8 0c0 .55-.45 1-1 1-.56 0-1-.45-1-1s.44-1 1-1c.55 0 1 .45 1 1zm-8 0c0 .55-.46 1-1 1-.56 0-1-.45-1-1s.44-1 1-1c.54 0 1 .45 1 1zm-8 0c0 .55-.46 1-1 1-.56 0-1-.45-1-1s.44-1 1-1c.54 0 1 .45 1 1zm-8 0c0 .55-.46 1-1 1-.56 0-1-.45-1-1s.44-1 1-1c.54 0 1 .45 1 1zm-8 0c0 .55-.46 1-1 1-.56 0-1-.45-1-1s.44-1 1-1c.54 0 1 .45 1 1zm-8 0c0 .55-.46 1-1 1-.56 0-1-.45-1-1s.44-1 1-1c.54 0 1 .45 1 1zm-8 0c0 .55-.46 1-1 1-.56 0-1-.45-1-1s.44-1 1-1c.54 0 1 .45 1 1zm-8 0c0 .55-.46 1-1 1-.56 0-1-.45-1-1s.44-1 1-1c.54 0 1 .45 1 1zm-6.98-1.03c0 .55-.45 1-1 1s-1-.45-1-1 .45-1 1-1 1 .45 1 1zm0-8c0 .55-.45 1-1 1s-1-.45-1-1 .45-1 1-1 1 .45 1 1zm0-8c0 .55-.45 1-1 1s-1-.45-1-1 .45-1 1-1 1 .45 1 1zm0-8c0 .55-.45 1-1 1s-1-.45-1-1c0-.56.45-1 1-1s1 .44 1 1zm0-8c0 .55-.45 1-1 1s-1-.45-1-1c0-.56.45-1 1-1s1 .44 1 1zm0-8c0 .55-.45 1-1 1s-1-.45-1-1c0-.56.45-1 1-1s1 .44 1 1zm0-8c0 .55-.45 1-1 1s-1-.45-1-1c0-.56.45-1 1-1s1 .44 1 1zm0-8c0 .55-.45 1-1 1s-1-.45-1-1c0-.56.45-1 1-1s1 .44 1 1z"/><path d="M-719-580h-2v-1h2z"/><path d="M-1097.27-735.52h-25.46l12.73-21.52z" fill="#fff"/><path d="M-1095.52-734.52h-28.96L-1110-759zm-25.45-2h21.94l-10.97-18.55z"/><path d="M-990-581v-89h-120v-65.04" fill="none"/><path d="M-989-581c0 .55-.45 1-1 1s-1-.45-1-1 .45-1 1-1 1 .45 1 1zm0-8.06c0 .55-.45 1-1 1s-1-.45-1-1 .45-1 1-1 1 .45 1 1zm0-8.06c0 .55-.45 1-1 1s-1-.45-1-1 .45-1 1-1 1 .45 1 1zm0-8.06c0 .55-.45 1-1 1s-1-.45-1-1 .45-1 1-1 1 .45 1 1zm0-8.06c0 .55-.45 1-1 1s-1-.45-1-1 .45-1 1-1 1 .45 1 1zm0-8.06c0 .55-.45 1-1 1s-1-.45-1-1 .45-1 1-1 1 .45 1 1zm0-8.06c0 .55-.45 1-1 1s-1-.45-1-1 .45-1 1-1 1 .45 1 1zm0-8.06c0 .55-.45 1-1 1s-1-.45-1-1 .45-1 1-1 1 .45 1 1zm0-8.06c0 .55-.45 1-1 1s-1-.45-1-1 .45-1 1-1 1 .45 1 1zm0-8.06c0 .55-.45 1-1 1s-1-.45-1-1 .45-1 1-1 1 .45 1 1zm0-8.06c0 .55-.45 1-1 1s-1-.45-1-1 .45-1 1-1 1 .45 1 1zm0-8.06c0 .55-.45 1-1 1s-1-.45-1-1 .45-1 1-1 1 .45 1 1zm-7.72-.34c0 .55-.45 1-1 1s-1-.45-1-1 .45-1 1-1 1 .45 1 1zm-8.06 0c0 .55-.45 1-1 1s-1-.45-1-1 .45-1 1-1 1 .45 1 1zm-8.06 0c0 .55-.45 1-1 1s-1-.45-1-1 .45-1 1-1 1 .45 1 1zm-8.06 0c0 .55-.45 1-1 1s-1-.45-1-1 .45-1 1-1 1 .45 1 1zm-8.06 0c0 .55-.45 1-1 1s-1-.45-1-1 .45-1 1-1 1 .45 1 1zm-8.06 0c0 .55-.45 1-1 1s-1-.45-1-1 .45-1 1-1 1 .45 1 1zm-8.06 0c0 .55-.45 1-1 1s-1-.45-1-1 .45-1 1-1 1 .45 1 1zm-8.06 0c0 .55-.45 1-1 1s-1-.45-1-1 .45-1 1-1 1 .45 1 1zm-8.06 0c0 .55-.45 1-1 1s-1-.45-1-1 .45-1 1-1 1 .45 1 1zm-8.06 0c0 .55-.44 1-1 1-.55 0-1-.45-1-1s.45-1 1-1c.56 0 1 .45 1 1zm-8.06 0c0 .55-.44 1-1 1-.55 0-1-.45-1-1s.45-1 1-1c.56 0 1 .45 1 1zm-8.06 0c0 .55-.44 1-1 1-.55 0-1-.45-1-1s.45-1 1-1c.56 0 1 .45 1 1zm-8.06 0c0 .55-.44 1-1 1-.55 0-1-.45-1-1s.45-1 1-1c.56 0 1 .45 1 1zm-8.06 0c0 .55-.44 1-1 1-.55 0-1-.45-1-1s.45-1 1-1c.56 0 1 .45 1 1zm-7.5-.56c0 .56-.45 1-1 1s-1-.44-1-1c0-.55.45-1 1-1s1 .45 1 1zm0-8.06c0 .56-.45 1-1 1s-1-.44-1-1c0-.55.45-1 1-1s1 .45 1 1zm0-8.06c0 .56-.45 1-1 1s-1-.44-1-1c0-.55.45-1 1-1s1 .45 1 1zm0-8.06c0 .56-.45 1-1 1s-1-.44-1-1c0-.55.45-1 1-1s1 .45 1 1zm0-8.06c0 .56-.45 1-1 1s-1-.44-1-1c0-.55.45-1 1-1s1 .45 1 1zm0-8.06c0 .56-.45 1-1 1s-1-.44-1-1c0-.55.45-1 1-1s1 .45 1 1zm0-8.06c0 .56-.45 1-1 1s-1-.44-1-1c0-.55.45-1 1-1s1 .45 1 1zm0-8.06c0 .56-.45 1-1 1s-1-.44-1-1c0-.55.45-1 1-1s1 .45 1 1z"/><path d="M-989-580h-2v-1h2z"/><path d="M-1097.27-735.52h-25.46l12.73-21.52z" fill="#fff"/><path d="M-1095.52-734.52h-28.96L-1110-759zm-25.45-2h21.94l-10.97-18.55z"/><path d="M-1280-581v-89h170v-65.04" fill="none"/><path d="M-1279-581c0 .55-.45 1-1 1s-1-.45-1-1 .45-1 1-1 1 .45 1 1zm0-7.9c0 .55-.45 1-1 1s-1-.45-1-1c0-.56.45-1 1-1s1 .44 1 1zm0-7.9c0 .55-.45 1-1 1s-1-.45-1-1c0-.56.45-1 1-1s1 .44 1 1zm0-7.9c0 .54-.45 1-1 1s-1-.46-1-1c0-.56.45-1 1-1s1 .44 1 1zm0-7.9c0 .54-.45 1-1 1s-1-.46-1-1c0-.57.45-1 1-1s1 .43 1 1zm0-7.92c0 .56-.45 1-1 1s-1-.44-1-1c0-.55.45-1 1-1s1 .45 1 1zm0-7.9c0 .55-.45 1-1 1s-1-.45-1-1 .45-1 1-1 1 .45 1 1zm0-7.9c0 .55-.45 1-1 1s-1-.45-1-1c0-.56.45-1 1-1s1 .44 1 1zm0-7.9c0 .55-.45 1-1 1s-1-.45-1-1c0-.56.45-1 1-1s1 .44 1 1zm0-7.9c0 .54-.45 1-1 1s-1-.46-1-1c0-.56.45-1 1-1s1 .44 1 1zm0-7.9c0 .54-.45 1-1 1s-1-.46-1-1c0-.57.45-1 1-1s1 .43 1 1zm0-7.92c0 .56-.45 1-1 1s-1-.44-1-1c0-.55.45-1 1-1s1 .45 1 1zm5.84-2.06c0 .55-.45 1-1 1s-1-.45-1-1 .45-1 1-1 1 .45 1 1zm7.9 0c0 .55-.44 1-1 1-.55 0-1-.45-1-1s.45-1 1-1c.56 0 1 .45 1 1zm7.9 0c0 .55-.44 1-1 1-.55 0-1-.45-1-1s.45-1 1-1c.56 0 1 .45 1 1zm7.9 0c0 .55-.44 1-1 1-.54 0-1-.45-1-1s.46-1 1-1c.56 0 1 .45 1 1zm7.9 0c0 .55-.43 1-1 1-.54 0-1-.45-1-1s.46-1 1-1c.57 0 1 .45 1 1zm7.92 0c0 .55-.45 1-1 1-.56 0-1-.45-1-1s.44-1 1-1c.55 0 1 .45 1 1zm7.9 0c0 .55-.45 1-1 1s-1-.45-1-1 .45-1 1-1 1 .45 1 1zm7.9 0c0 .55-.44 1-1 1-.55 0-1-.45-1-1s.45-1 1-1c.56 0 1 .45 1 1zm7.9 0c0 .55-.44 1-1 1-.55 0-1-.45-1-1s.45-1 1-1c.56 0 1 .45 1 1zm7.9 0c0 .55-.44 1-1 1-.54 0-1-.45-1-1s.46-1 1-1c.56 0 1 .45 1 1zm7.9 0c0 .55-.43 1-1 1-.54 0-1-.45-1-1s.46-1 1-1c.57 0 1 .45 1 1zm7.92 0c0 .55-.45 1-1 1-.56 0-1-.45-1-1s.44-1 1-1c.55 0 1 .45 1 1zm7.9 0c0 .55-.45 1-1 1s-1-.45-1-1 .45-1 1-1 1 .45 1 1zm7.9 0c0 .55-.45 1-1 1s-1-.45-1-1 .45-1 1-1 1 .45 1 1zm7.9 0c0 .55-.44 1-1 1-.55 0-1-.45-1-1s.45-1 1-1c.56 0 1 .45 1 1zm7.9 0c0 .55-.44 1-1 1-.54 0-1-.45-1-1s.46-1 1-1c.56 0 1 .45 1 1zm7.9 0c0 .55-.44 1-1 1-.54 0-1-.45-1-1s.46-1 1-1c.56 0 1 .45 1 1zm7.92 0c0 .55-.45 1-1 1-.56 0-1-.45-1-1s.44-1 1-1c.55 0 1 .45 1 1zm7.9 0c0 .55-.45 1-1 1s-1-.45-1-1 .45-1 1-1 1 .45 1 1zm7.9 0c0 .55-.45 1-1 1s-1-.45-1-1 .45-1 1-1 1 .45 1 1zm7.9 0c0 .55-.44 1-1 1-.55 0-1-.45-1-1s.45-1 1-1c.56 0 1 .45 1 1zm6.1-1.8c0 .54-.45 1-1 1s-1-.46-1-1c0-.56.45-1 1-1s1 .44 1 1zm0-7.9c0 .54-.45 1-1 1s-1-.46-1-1c0-.56.45-1 1-1s1 .44 1 1zm0-7.92c0 .56-.45 1-1 1s-1-.44-1-1c0-.55.45-1 1-1s1 .45 1 1zm0-7.9c0 .55-.45 1-1 1s-1-.45-1-1 .45-1 1-1 1 .45 1 1zm0-7.9c0 .55-.45 1-1 1s-1-.45-1-1 .45-1 1-1 1 .45 1 1zm0-7.9c0 .55-.45 1-1 1s-1-.45-1-1c0-.56.45-1 1-1s1 .44 1 1zm0-7.9c0 .54-.45 1-1 1s-1-.46-1-1c0-.56.45-1 1-1s1 .44 1 1zm0-7.9c0 .54-.45 1-1 1s-1-.46-1-1c0-.56.45-1 1-1s1 .44 1 1zm0-7.92c0 .56-.45 1-1 1s-1-.44-1-1c0-.55.45-1 1-1s1 .45 1 1z"/><path d="M-1279-580h-2v-1h2z"/><path d="M-1097.27-735.52h-25.46l12.73-21.52z" fill="#fff"/><path d="M-1095.52-734.52h-28.96L-1110-759zm-25.45-2h21.94l-10.97-18.55z"/><path d="M-1560-581v-89h450v-65.04" fill="none"/><path d="M-1559-581c0 .55-.45 1-1 1s-1-.45-1-1 .45-1 1-1 1 .45 1 1zm0-7.95c0 .55-.45 1-1 1s-1-.45-1-1 .45-1 1-1 1 .45 1 1zm0-7.95c0 .56-.45 1-1 1s-1-.44-1-1c0-.55.45-1 1-1s1 .45 1 1zm0-7.94c0 .55-.45 1-1 1s-1-.45-1-1c0-.56.45-1 1-1s1 .44 1 1zm0-7.95c0 .56-.45 1-1 1s-1-.44-1-1c0-.54.45-1 1-1s1 .46 1 1zm0-7.94c0 .55-.45 1-1 1s-1-.45-1-1 .45-1 1-1 1 .45 1 1zm0-7.95c0 .57-.45 1-1 1s-1-.43-1-1c0-.54.45-1 1-1s1 .46 1 1zm0-7.93c0 .55-.45 1-1 1s-1-.45-1-1c0-.56.45-1 1-1s1 .44 1 1zm0-7.95c0 .55-.45 1-1 1s-1-.45-1-1 .45-1 1-1 1 .45 1 1zm0-7.95c0 .55-.45 1-1 1s-1-.45-1-1 .45-1 1-1 1 .45 1 1zm0-7.95c0 .55-.45 1-1 1s-1-.45-1-1 .45-1 1-1 1 .45 1 1zm0-7.95c0 .56-.45 1-1 1s-1-.44-1-1c0-.55.45-1 1-1s1 .45 1 1zm6.37-1.57c0 .55-.44 1-1 1-.55 0-1-.45-1-1s.45-1 1-1c.56 0 1 .45 1 1zm7.95 0c0 .55-.45 1-1 1s-1-.45-1-1 .45-1 1-1 1 .45 1 1zm7.95 0c0 .55-.45 1-1 1s-1-.45-1-1 .45-1 1-1 1 .45 1 1zm7.95 0c0 .55-.45 1-1 1s-1-.45-1-1 .45-1 1-1 1 .45 1 1zm7.95 0c0 .55-.45 1-1 1-.56 0-1-.45-1-1s.44-1 1-1c.55 0 1 .45 1 1zm7.94 0c0 .55-.43 1-1 1-.54 0-1-.45-1-1s.46-1 1-1c.57 0 1 .45 1 1zm7.96 0c0 .55-.45 1-1 1s-1-.45-1-1 .45-1 1-1 1 .45 1 1zm7.95 0c0 .55-.44 1-1 1-.54 0-1-.45-1-1s.46-1 1-1c.56 0 1 .45 1 1zm7.96 0c0 .55-.45 1-1 1-.56 0-1-.45-1-1s.44-1 1-1c.55 0 1 .45 1 1zm7.94 0c0 .55-.44 1-1 1-.55 0-1-.45-1-1s.45-1 1-1c.56 0 1 .45 1 1zm7.95 0c0 .55-.45 1-1 1s-1-.45-1-1 .45-1 1-1 1 .45 1 1zm7.95 0c0 .55-.45 1-1 1s-1-.45-1-1 .45-1 1-1 1 .45 1 1zm7.95 0c0 .55-.45 1-1 1s-1-.45-1-1 .45-1 1-1 1 .45 1 1zm7.95 0c0 .55-.45 1-1 1-.56 0-1-.45-1-1s.44-1 1-1c.55 0 1 .45 1 1zm7.94 0c0 .55-.44 1-1 1-.55 0-1-.45-1-1s.45-1 1-1c.56 0 1 .45 1 1zm7.95 0c0 .55-.46 1-1 1-.56 0-1-.45-1-1s.44-1 1-1c.54 0 1 .45 1 1zm7.94 0c0 .55-.45 1-1 1s-1-.45-1-1 .45-1 1-1 1 .45 1 1zm7.95 0c0 .55-.46 1-1 1-.57 0-1-.45-1-1s.43-1 1-1c.54 0 1 .45 1 1zm7.94 0c0 .55-.45 1-1 1-.56 0-1-.45-1-1s.44-1 1-1c.55 0 1 .45 1 1zm7.94 0c0 .55-.44 1-1 1-.55 0-1-.45-1-1s.45-1 1-1c.56 0 1 .45 1 1zm7.95 0c0 .55-.45 1-1 1s-1-.45-1-1 .45-1 1-1 1 .45 1 1zm7.95 0c0 .55-.45 1-1 1s-1-.45-1-1 .45-1 1-1 1 .45 1 1zm7.95 0c0 .55-.45 1-1 1-.56 0-1-.45-1-1s.44-1 1-1c.55 0 1 .45 1 1zm7.94 0c0 .55-.44 1-1 1-.55 0-1-.45-1-1s.45-1 1-1c.56 0 1 .45 1 1zm7.95 0c0 .55-.45 1-1 1s-1-.45-1-1 .45-1 1-1 1 .45 1 1zm7.95 0c0 .55-.45 1-1 1s-1-.45-1-1 .45-1 1-1 1 .45 1 1zm7.95 0c0 .55-.45 1-1 1s-1-.45-1-1 .45-1 1-1 1 .45 1 1zm7.95 0c0 .55-.45 1-1 1-.56 0-1-.45-1-1s.44-1 1-1c.55 0 1 .45 1 1zm7.94 0c0 .55-.43 1-1 1-.54 0-1-.45-1-1s.46-1 1-1c.57 0 1 .45 1 1zm7.96 0c0 .55-.45 1-1 1s-1-.45-1-1 .45-1 1-1 1 .45 1 1zm7.95 0c0 .55-.44 1-1 1-.54 0-1-.45-1-1s.46-1 1-1c.56 0 1 .45 1 1zm7.96 0c0 .55-.45 1-1 1-.56 0-1-.45-1-1s.44-1 1-1c.55 0 1 .45 1 1zm7.94 0c0 .55-.44 1-1 1-.55 0-1-.45-1-1s.45-1 1-1c.56 0 1 .45 1 1zm7.95 0c0 .55-.45 1-1 1s-1-.45-1-1 .45-1 1-1 1 .45 1 1zm7.95 0c0 .55-.45 1-1 1s-1-.45-1-1 .45-1 1-1 1 .45 1 1zm7.95 0c0 .55-.45 1-1 1s-1-.45-1-1 .45-1 1-1 1 .45 1 1zm7.95 0c0 .55-.45 1-1 1-.56 0-1-.45-1-1s.44-1 1-1c.55 0 1 .45 1 1zm7.94 0c0 .55-.44 1-1 1-.55 0-1-.45-1-1s.45-1 1-1c.56 0 1 .45 1 1zm7.95 0c0 .55-.46 1-1 1-.56 0-1-.45-1-1s.44-1 1-1c.54 0 1 .45 1 1zm7.94 0c0 .55-.45 1-1 1s-1-.45-1-1 .45-1 1-1 1 .45 1 1zm7.95 0c0 .55-.46 1-1 1-.56 0-1-.45-1-1s.44-1 1-1c.54 0 1 .45 1 1zm7.94 0c0 .55-.45 1-1 1-.56 0-1-.45-1-1s.44-1 1-1c.55 0 1 .45 1 1zm7.94 0c0 .55-.44 1-1 1-.55 0-1-.45-1-1s.45-1 1-1c.56 0 1 .45 1 1zm7.95 0c0 .55-.45 1-1 1s-1-.45-1-1 .45-1 1-1 1 .45 1 1zm7.95 0c0 .55-.45 1-1 1s-1-.45-1-1 .45-1 1-1 1 .45 1 1zm7.95 0c0 .55-.45 1-1 1-.56 0-1-.45-1-1s.44-1 1-1c.55 0 1 .45 1 1zm7.94 0c0 .55-.44 1-1 1-.55 0-1-.45-1-1s.45-1 1-1c.56 0 1 .45 1 1zm7.95 0c0 .55-.45 1-1 1s-1-.45-1-1 .45-1 1-1 1 .45 1 1zm7.95 0c0 .55-.45 1-1 1s-1-.45-1-1 .45-1 1-1 1 .45 1 1zm7.95 0c0 .55-.45 1-1 1s-1-.45-1-1 .45-1 1-1 1 .45 1 1zm7.95 0c0 .55-.45 1-1 1-.56 0-1-.45-1-1s.44-1 1-1c.55 0 1 .45 1 1zm7.94 0c0 .55-.43 1-1 1-.54 0-1-.45-1-1s.46-1 1-1c.57 0 1 .45 1 1zm7.96 0c0 .55-.45 1-1 1s-1-.45-1-1 .45-1 1-1 1 .45 1 1zm7.95 0c0 .55-.44 1-1 1-.54 0-1-.45-1-1s.46-1 1-1c.56 0 1 .45 1 1zm7.96 0c0 .55-.45 1-1 1-.56 0-1-.45-1-1s.44-1 1-1c.55 0 1 .45 1 1zm7.95 0c0 .55-.44 1-1 1-.55 0-1-.45-1-1s.45-1 1-1c.56 0 1 .45 1 1zm6.5-1.45c0 .55-.45 1-1 1s-1-.45-1-1c0-.56.45-1 1-1s1 .44 1 1zm0-7.95c0 .55-.45 1-1 1s-1-.45-1-1 .45-1 1-1 1 .45 1 1zm0-7.95c0 .55-.45 1-1 1s-1-.45-1-1 .45-1 1-1 1 .45 1 1zm0-7.95c0 .56-.45 1-1 1s-1-.44-1-1c0-.55.45-1 1-1s1 .45 1 1zm0-7.94c0 .55-.45 1-1 1s-1-.45-1-1c0-.56.45-1 1-1s1 .44 1 1zm0-7.95c0 .56-.45 1-1 1s-1-.44-1-1c0-.54.45-1 1-1s1 .46 1 1zm0-7.94c0 .55-.45 1-1 1s-1-.45-1-1 .45-1 1-1 1 .45 1 1zm0-7.95c0 .56-.45 1-1 1s-1-.44-1-1c0-.54.45-1 1-1s1 .46 1 1zm0-7.94c0 .56-.45 1-1 1s-1-.44-1-1c0-.55.45-1 1-1s1 .45 1 1z"/><path d="M-1559-580h-2v-1h2z"/><path d="M-1097.27-735.52h-25.46l12.73-21.52z" fill="#fff"/><path d="M-1095.52-734.52h-28.96L-1110-759zm-25.45-2h21.94l-10.97-18.55z"/><path d="M-1480-1246v-40h-201v311h21.76" stroke="#000" stroke-width="2" fill="none"/><path d="M-1479-1245h-2v-1h2zM-1644.24-975l-14.26 4.64v-9.28z"/><path d="M-1641-975l-18.5 6v-12zm-16.5 3.26l10.03-3.26-10.03-3.26z"/><g><use xlink:href="#aa" transform="matrix(1,0,0,1,-1665.7762895994213,-1016.3333333333334) translate(0 24.888888888888893)"/></g><path d="M-580-500h180v140h-180z" stroke="#000" stroke-width="2" fill="#fff"/><path d="M-580-462h180m-180 59h180" stroke="#000" stroke-width="2" fill="none"/><g><use xlink:href="#ao" transform="matrix(1,0,0,1,-572,-500) translate(67 22.6)"/></g><g><use xlink:href="#c" transform="matrix(1,0,0,1,-568,-454.4) translate(0 25.6)"/><use xlink:href="#ap" transform="matrix(1,0,0,1,-568,-454.4) translate(10.95 25.6)"/><use xlink:href="#aq" transform="matrix(1,0,0,1,-568,-454.4) translate(60.900000000000006 25.6)"/></g><defs><path d="M18-100v-36l175-74v27L42-118l151 64v27" id="ar"/><path d="M141-36C126-15 110 5 73 4 37 3 15-17 15-53c-1-64 63-63 125-63 3-35-9-54-41-54-24 1-41 7-42 31l-33-3c5-37 33-52 76-52 45 0 72 20 72 64v82c-1 20 7 32 28 27v20c-31 9-61-2-59-35zM48-53c0 20 12 33 32 33 41-3 63-29 60-74-43 2-92-5-92 41" id="as"/><path d="M115-194c53 0 69 39 70 98 0 66-23 100-70 100C84 3 66-7 56-30L54 0H23l1-261h32v101c10-23 28-34 59-34zm-8 174c40 0 45-34 45-75 0-40-5-75-45-74-42 0-51 32-51 76 0 43 10 73 51 73" id="at"/><path d="M135-143c-3-34-86-38-87 0 15 53 115 12 119 90S17 21 10-45l28-5c4 36 97 45 98 0-10-56-113-15-118-90-4-57 82-63 122-42 12 7 21 19 24 35" id="au"/><path d="M59-47c-2 24 18 29 38 22v24C64 9 27 4 27-40v-127H5v-23h24l9-43h21v43h35v23H59v120" id="av"/><path d="M114-163C36-179 61-72 57 0H25l-1-190h30c1 12-1 29 2 39 6-27 23-49 58-41v29" id="aw"/><path d="M96-169c-40 0-48 33-48 73s9 75 48 75c24 0 41-14 43-38l32 2c-6 37-31 61-74 61-59 0-76-41-82-99-10-93 101-131 147-64 4 7 5 14 7 22l-32 3c-4-21-16-35-41-35" id="ax"/><path d="M18-27v-27l151-64-151-65v-27l175 74v36" id="ay"/><g id="a"><use transform="matrix(0.05,0,0,0.05,0,0)" xlink:href="#ar"/><use transform="matrix(0.05,0,0,0.05,10.5,0)" xlink:href="#as"/><use transform="matrix(0.05,0,0,0.05,20.5,0)" xlink:href="#at"/><use transform="matrix(0.05,0,0,0.05,30.5,0)" xlink:href="#au"/><use transform="matrix(0.05,0,0,0.05,39.5,0)" xlink:href="#av"/><use transform="matrix(0.05,0,0,0.05,44.5,0)" xlink:href="#aw"/><use transform="matrix(0.05,0,0,0.05,50.45,0)" xlink:href="#as"/><use transform="matrix(0.05,0,0,0.05,60.45,0)" xlink:href="#ax"/><use transform="matrix(0.05,0,0,0.05,69.45,0)" xlink:href="#av"/><use transform="matrix(0.05,0,0,0.05,74.45,0)" xlink:href="#ay"/></g><path d="M30-248c87 1 191-15 191 75 0 78-77 80-158 76V0H30v-248zm33 125c57 0 124 11 124-50 0-59-68-47-124-48v98" id="az"/><path d="M84 4C-5 8 30-112 23-190h32v120c0 31 7 50 39 49 72-2 45-101 50-169h31l1 190h-30c-1-10 1-25-2-33-11 22-28 36-60 37" id="aA"/><path d="M24 0v-261h32V0H24" id="aB"/><path d="M24-231v-30h32v30H24zM24 0v-190h32V0H24" id="aC"/><path d="M100-194c62-1 85 37 85 99 1 63-27 99-86 99S16-35 15-95c0-66 28-99 85-99zM99-20c44 1 53-31 53-75 0-43-8-75-51-75s-53 32-53 75 10 74 51 75zM76-211c8-23 27-35 38-54h36v5l-58 49H76" id="aD"/><path d="M117-194c89-4 53 116 60 194h-32v-121c0-31-8-49-39-48C34-167 62-67 57 0H25l-1-190h30c1 10-1 24 2 32 11-22 29-35 61-36" id="aE"/><g id="b"><use transform="matrix(0.05,0,0,0.05,0,0)" xlink:href="#az"/><use transform="matrix(0.05,0,0,0.05,12,0)" xlink:href="#aA"/><use transform="matrix(0.05,0,0,0.05,22,0)" xlink:href="#at"/><use transform="matrix(0.05,0,0,0.05,32,0)" xlink:href="#aB"/><use transform="matrix(0.05,0,0,0.05,35.95,0)" xlink:href="#aC"/><use transform="matrix(0.05,0,0,0.05,39.900000000000006,0)" xlink:href="#ax"/><use transform="matrix(0.05,0,0,0.05,48.900000000000006,0)" xlink:href="#as"/><use transform="matrix(0.05,0,0,0.05,58.900000000000006,0)" xlink:href="#ax"/><use transform="matrix(0.05,0,0,0.05,67.9,0)" xlink:href="#aC"/><use transform="matrix(0.05,0,0,0.05,71.85000000000001,0)" xlink:href="#aD"/><use transform="matrix(0.05,0,0,0.05,81.85000000000001,0)" xlink:href="#aE"/></g><path d="M16-82v-28h88v28H16" id="aF"/><use transform="matrix(0.05,0,0,0.05,0,0)" xlink:href="#aF" id="c"/><path d="M100-194c62-1 85 37 85 99 1 63-27 99-86 99S16-35 15-95c0-66 28-99 85-99zM99-20c44 1 53-31 53-75 0-43-8-75-51-75s-53 32-53 75 10 74 51 75" id="aG"/><path d="M140-251c81 0 123 46 123 126C263-53 228-8 163 1c7 30 30 48 69 40v23c-55 16-95-15-103-61C56-3 17-48 17-125c0-80 42-126 123-126zm0 227c63 0 89-41 89-101s-29-99-89-99c-61 0-89 39-89 99S79-25 140-24" id="aH"/><path d="M100-194c63 0 86 42 84 106H49c0 40 14 67 53 68 26 1 43-12 49-29l28 8c-11 28-37 45-77 45C44 4 14-33 15-96c1-61 26-98 85-98zm52 81c6-60-76-77-97-28-3 7-6 17-6 28h103" id="aI"/><path d="M30-248c118-7 216 8 213 122C240-48 200 0 122 0H30v-248zM63-27c89 8 146-16 146-99s-60-101-146-95v194" id="aJ"/><path d="M240 0l2-218c-23 76-54 145-80 218h-23L58-218 59 0H30v-248h44l77 211c21-75 51-140 76-211h43V0h-30" id="aK"/><path d="M143 4C61 4 22-44 18-125c-5-107 100-154 193-111 17 8 29 25 37 43l-32 9c-13-25-37-40-76-40-61 0-88 39-88 99 0 61 29 100 91 101 35 0 62-11 79-27v-45h-74v-28h105v86C228-13 192 4 143 4" id="aL"/><g id="d"><use transform="matrix(0.05,0,0,0.05,0,0)" xlink:href="#aA"/><use transform="matrix(0.05,0,0,0.05,10,0)" xlink:href="#au"/><use transform="matrix(0.05,0,0,0.05,19,0)" xlink:href="#aA"/><use transform="matrix(0.05,0,0,0.05,29,0)" xlink:href="#as"/><use transform="matrix(0.05,0,0,0.05,39,0)" xlink:href="#aw"/><use transform="matrix(0.05,0,0,0.05,44.95,0)" xlink:href="#aC"/><use transform="matrix(0.05,0,0,0.05,48.900000000000006,0)" xlink:href="#aG"/><use transform="matrix(0.05,0,0,0.05,58.900000000000006,0)" xlink:href="#au"/><use transform="matrix(0.05,0,0,0.05,67.9,0)" xlink:href="#aH"/><use transform="matrix(0.05,0,0,0.05,81.9,0)" xlink:href="#aA"/><use transform="matrix(0.05,0,0,0.05,91.9,0)" xlink:href="#aI"/><use transform="matrix(0.05,0,0,0.05,101.9,0)" xlink:href="#aJ"/><use transform="matrix(0.05,0,0,0.05,114.85000000000001,0)" xlink:href="#aC"/><use transform="matrix(0.05,0,0,0.05,118.80000000000001,0)" xlink:href="#aI"/><use transform="matrix(0.05,0,0,0.05,128.8,0)" xlink:href="#aw"/><use transform="matrix(0.05,0,0,0.05,134.75,0)" xlink:href="#aG"/><use transform="matrix(0.05,0,0,0.05,144.75,0)" xlink:href="#aE"/><use transform="matrix(0.05,0,0,0.05,154.75,0)" xlink:href="#aK"/><use transform="matrix(0.05,0,0,0.05,169.7,0)" xlink:href="#aI"/><use transform="matrix(0.05,0,0,0.05,179.7,0)" xlink:href="#aL"/><use transform="matrix(0.05,0,0,0.05,193.7,0)" xlink:href="#aA"/><use transform="matrix(0.05,0,0,0.05,203.7,0)" xlink:href="#au"/><use transform="matrix(0.05,0,0,0.05,212.69999999999996,0)" xlink:href="#av"/><use transform="matrix(0.05,0,0,0.05,217.69999999999996,0)" xlink:href="#as"/></g><g id="e"><use transform="matrix(0.05,0,0,0.05,0,0)" xlink:href="#as"/><use transform="matrix(0.05,0,0,0.05,10,0)" xlink:href="#aA"/><use transform="matrix(0.05,0,0,0.05,20,0)" xlink:href="#av"/><use transform="matrix(0.05,0,0,0.05,25,0)" xlink:href="#aG"/><use transform="matrix(0.05,0,0,0.05,35,0)" xlink:href="#aw"/></g><path d="M115-194c55 1 70 41 70 98S169 2 115 4C84 4 66-9 55-30l1 105H24l-1-265h31l2 30c10-21 28-34 59-34zm-8 174c40 0 45-34 45-75s-6-73-45-74c-42 0-51 32-51 76 0 43 10 73 51 73" id="aM"/><path d="M210-169c-67 3-38 105-44 169h-31v-121c0-29-5-50-35-48C34-165 62-65 56 0H25l-1-190h30c1 10-1 24 2 32 10-44 99-50 107 0 11-21 27-35 58-36 85-2 47 119 55 194h-31v-121c0-29-5-49-35-48" id="aN"/><g id="f"><use transform="matrix(0.05,0,0,0.05,0,0)" xlink:href="#aM"/><use transform="matrix(0.05,0,0,0.05,10,0)" xlink:href="#aI"/><use transform="matrix(0.05,0,0,0.05,20,0)" xlink:href="#aw"/><use transform="matrix(0.05,0,0,0.05,25.950000000000003,0)" xlink:href="#aN"/><use transform="matrix(0.05,0,0,0.05,40.9,0)" xlink:href="#aC"/><use transform="matrix(0.05,0,0,0.05,44.85,0)" xlink:href="#au"/><use transform="matrix(0.05,0,0,0.05,53.85,0)" xlink:href="#aG"/></g><path d="M27 0v-27h64v-190l-56 39v-29l58-41h29v221h61V0H27" id="aO"/><path d="M33-261c38 41 65 92 65 168S71 34 33 75H2C39 34 66-17 66-93S39-220 2-261h31" id="aP"/><g id="g"><use transform="matrix(0.05,0,0,0.05,0,0)" xlink:href="#aO"/><use transform="matrix(0.05,0,0,0.05,10,0)" xlink:href="#aP"/></g><path d="M118-107v75H92v-75H18v-26h74v-75h26v75h74v26h-74" id="aQ"/><use transform="matrix(0.05,0,0,0.05,0,0)" xlink:href="#aQ" id="h"/><path d="M87 75C49 33 22-17 22-94c0-76 28-126 65-167h31c-38 41-64 92-64 168S80 34 118 75H87" id="aR"/><g id="i"><use transform="matrix(0.05,0,0,0.05,0,0)" xlink:href="#aM"/><use transform="matrix(0.05,0,0,0.05,10,0)" xlink:href="#aI"/><use transform="matrix(0.05,0,0,0.05,20,0)" xlink:href="#au"/><use transform="matrix(0.05,0,0,0.05,29,0)" xlink:href="#aG"/><use transform="matrix(0.05,0,0,0.05,39,0)" xlink:href="#aR"/><use transform="matrix(0.05,0,0,0.05,44.95,0)" xlink:href="#aP"/></g><path d="M101-251c82-7 93 87 43 132L82-64C71-53 59-42 53-27h129V0H18c2-99 128-94 128-182 0-28-16-43-45-43s-46 15-49 41l-32-3c6-41 34-60 81-64" id="aS"/><g id="j"><use transform="matrix(0.05,0,0,0.05,0,0)" xlink:href="#aS"/><use transform="matrix(0.05,0,0,0.05,10,0)" xlink:href="#aP"/></g><path d="M138-131c27 9 52 24 51 61 0 53-36 74-89 74S11-19 11-69c0-35 22-54 51-61-78-25-46-121 38-121 51 0 83 19 83 66 0 30-18 49-45 54zm-38-16c24 0 32-13 32-36 1-23-11-34-32-34-22 0-33 12-32 34 0 22 9 36 32 36zm1 116c27 0 37-17 37-43 0-25-13-39-39-39-24 0-37 15-37 40 0 27 11 42 39 42" id="aT"/><path d="M102-93c0 74-22 123-52 168H0C30 29 54-18 53-93c0-74-22-123-53-168h50c30 45 52 94 52 168" id="aU"/><g id="k"><use transform="matrix(0.05,0,0,0.05,0,0)" xlink:href="#aT"/><use transform="matrix(0.05,0,0,0.05,10,0)" xlink:href="#aU"/></g><use transform="matrix(0.05,0,0,0.05,0,0)" xlink:href="#aQ" id="l"/><path d="M85-194c31 0 48 13 60 33l-1-100h32l1 261h-30c-2-10 0-23-3-31C134-8 116 4 85 4 32 4 16-35 15-94c0-66 23-100 70-100zm9 24c-40 0-46 34-46 75 0 40 6 74 45 74 42 0 51-32 51-76 0-42-9-74-50-73" id="aV"/><path d="M85 4C-2 5 27-109 22-190h50c7 57-23 150 33 157 60-5 35-97 40-157h50l1 190h-47c-2-12 1-28-3-38-12 25-28 42-61 42" id="aW"/><path d="M137-138c1-29-70-34-71-4 15 46 118 7 119 86 1 83-164 76-172 9l43-7c4 19 20 25 44 25 33 8 57-30 24-41C81-84 22-81 20-136c-2-80 154-74 161-7" id="aX"/><path d="M133-34C117-15 103 5 69 4 32 3 11-16 11-54c-1-60 55-63 116-61 1-26-3-47-28-47-18 1-26 9-28 27l-52-2c7-38 36-58 82-57s74 22 75 68l1 82c-1 14 12 18 25 15v27c-30 8-71 5-69-32zm-48 3c29 0 43-24 42-57-32 0-66-3-65 30 0 17 8 27 23 27" id="aY"/><path d="M135-150c-39-12-60 13-60 57V0H25l-1-190h47c2 13-1 29 3 40 6-28 27-53 61-41v41" id="aZ"/><path d="M25-224v-37h50v37H25zM25 0v-190h50V0H25" id="ba"/><path d="M110-194c64 0 96 36 96 99 0 64-35 99-97 99-61 0-95-36-95-99 0-62 34-99 96-99zm-1 164c35 0 45-28 45-65 0-40-10-65-43-65-34 0-45 26-45 65 0 36 10 65 43 65" id="bb"/><g id="m"><use transform="matrix(0.05,0,0,0.05,0,0)" xlink:href="#aV"/><use transform="matrix(0.05,0,0,0.05,10,0)" xlink:href="#as"/><use transform="matrix(0.05,0,0,0.05,20,0)" xlink:href="#aw"/><use transform="matrix(0.05,0,0,0.05,25.950000000000003,0)" xlink:href="#aK"/><use transform="matrix(0.05,0,0,0.05,40.9,0)" xlink:href="#aI"/><use transform="matrix(0.05,0,0,0.05,50.9,0)" xlink:href="#aL"/><use transform="matrix(0.05,0,0,0.05,64.9,0)" xlink:href="#aA"/><use transform="matrix(0.05,0,0,0.05,74.9,0)" xlink:href="#au"/><use transform="matrix(0.05,0,0,0.05,83.9,0)" xlink:href="#av"/><use transform="matrix(0.05,0,0,0.05,88.9,0)" xlink:href="#as"/><use transform="matrix(0.05,0,0,0.05,98.9,0)" xlink:href="#aR"/><use transform="matrix(0.05,0,0,0.05,104.85000000000001,0)" xlink:href="#aW"/><use transform="matrix(0.05,0,0,0.05,115.80000000000001,0)" xlink:href="#aX"/><use transform="matrix(0.05,0,0,0.05,125.80000000000001,0)" xlink:href="#aW"/><use transform="matrix(0.05,0,0,0.05,136.75,0)" xlink:href="#aY"/><use transform="matrix(0.05,0,0,0.05,146.75,0)" xlink:href="#aZ"/><use transform="matrix(0.05,0,0,0.05,153.75,0)" xlink:href="#ba"/><use transform="matrix(0.05,0,0,0.05,158.75,0)" xlink:href="#bb"/><use transform="matrix(0.05,0,0,0.05,169.7,0)" xlink:href="#aP"/></g><path d="M155-56V0h-30v-56H8v-25l114-167h33v167h35v25h-35zm-30-156c-27 46-58 90-88 131h88v-131" id="bc"/><g id="n"><use transform="matrix(0.05,0,0,0.05,0,0)" xlink:href="#bc"/><use transform="matrix(0.05,0,0,0.05,10,0)" xlink:href="#aP"/></g><path d="M185-189c-5-48-123-54-124 2 14 75 158 14 163 119 3 78-121 87-175 55-17-10-28-26-33-46l33-7c5 56 141 63 141-1 0-78-155-14-162-118-5-82 145-84 179-34 5 7 8 16 11 25" id="bd"/><path d="M137 0h-34L2-248h35l83 218 83-218h36" id="be"/><g id="o"><use transform="matrix(0.05,0,0,0.05,0,0)" xlink:href="#aM"/><use transform="matrix(0.05,0,0,0.05,10,0)" xlink:href="#aA"/><use transform="matrix(0.05,0,0,0.05,20,0)" xlink:href="#aI"/><use transform="matrix(0.05,0,0,0.05,30,0)" xlink:href="#aV"/><use transform="matrix(0.05,0,0,0.05,40,0)" xlink:href="#aI"/><use transform="matrix(0.05,0,0,0.05,50,0)" xlink:href="#bd"/><use transform="matrix(0.05,0,0,0.05,62,0)" xlink:href="#aI"/><use transform="matrix(0.05,0,0,0.05,72,0)" xlink:href="#aw"/><use transform="matrix(0.05,0,0,0.05,77.95,0)" xlink:href="#be"/><use transform="matrix(0.05,0,0,0.05,89.60000000000001,0)" xlink:href="#aC"/><use transform="matrix(0.05,0,0,0.05,93.55000000000001,0)" xlink:href="#au"/><use transform="matrix(0.05,0,0,0.05,102.55000000000001,0)" xlink:href="#av"/><use transform="matrix(0.05,0,0,0.05,107.55000000000001,0)" xlink:href="#as"/><use transform="matrix(0.05,0,0,0.05,117.55000000000001,0)" xlink:href="#az"/><use transform="matrix(0.05,0,0,0.05,129.55,0)" xlink:href="#aG"/><use transform="matrix(0.05,0,0,0.05,139.55,0)" xlink:href="#aw"/><use transform="matrix(0.05,0,0,0.05,145.5,0)" xlink:href="#aR"/><use transform="matrix(0.05,0,0,0.05,151.45,0)" xlink:href="#aA"/><use transform="matrix(0.05,0,0,0.05,161.45,0)" xlink:href="#au"/><use transform="matrix(0.05,0,0,0.05,170.45,0)" xlink:href="#aA"/><use transform="matrix(0.05,0,0,0.05,180.45,0)" xlink:href="#as"/><use transform="matrix(0.05,0,0,0.05,190.45,0)" xlink:href="#aw"/><use transform="matrix(0.05,0,0,0.05,196.39999999999998,0)" xlink:href="#aC"/><use transform="matrix(0.05,0,0,0.05,200.34999999999997,0)" xlink:href="#aG"/><use transform="matrix(0.05,0,0,0.05,210.34999999999997,0)" xlink:href="#aP"/></g><path d="M54-142c48-35 137-8 131 61C196 18 31 33 14-55l32-4c7 23 22 37 52 37 35-1 51-22 54-58 4-55-73-65-99-34H22l8-134h141v27H59" id="bf"/><g id="p"><use transform="matrix(0.05,0,0,0.05,0,0)" xlink:href="#bf"/><use transform="matrix(0.05,0,0,0.05,10,0)" xlink:href="#aP"/></g><g id="q"><use transform="matrix(0.05,0,0,0.05,0,0)" xlink:href="#ax"/><use transform="matrix(0.05,0,0,0.05,9,0)" xlink:href="#as"/><use transform="matrix(0.05,0,0,0.05,19,0)" xlink:href="#aE"/><use transform="matrix(0.05,0,0,0.05,29,0)" xlink:href="#av"/><use transform="matrix(0.05,0,0,0.05,34,0)" xlink:href="#aC"/><use transform="matrix(0.05,0,0,0.05,37.95,0)" xlink:href="#aV"/><use transform="matrix(0.05,0,0,0.05,47.95,0)" xlink:href="#as"/><use transform="matrix(0.05,0,0,0.05,57.95,0)" xlink:href="#aV"/><use transform="matrix(0.05,0,0,0.05,67.95,0)" xlink:href="#aK"/><use transform="matrix(0.05,0,0,0.05,82.9,0)" xlink:href="#aI"/><use transform="matrix(0.05,0,0,0.05,92.9,0)" xlink:href="#aL"/><use transform="matrix(0.05,0,0,0.05,106.9,0)" xlink:href="#aA"/><use transform="matrix(0.05,0,0,0.05,116.9,0)" xlink:href="#au"/><use transform="matrix(0.05,0,0,0.05,125.9,0)" xlink:href="#av"/><use transform="matrix(0.05,0,0,0.05,130.9,0)" xlink:href="#as"/><use transform="matrix(0.05,0,0,0.05,140.9,0)" xlink:href="#aR"/><use transform="matrix(0.05,0,0,0.05,146.85,0)" xlink:href="#aP"/></g><path d="M63-220v92h138v28H63V0H30v-248h175v28H63" id="bg"/><g id="r"><use transform="matrix(0.05,0,0,0.05,0,0)" xlink:href="#bg"/><use transform="matrix(0.05,0,0,0.05,10.950000000000001,0)" xlink:href="#aG"/><use transform="matrix(0.05,0,0,0.05,20.950000000000003,0)" xlink:href="#av"/><use transform="matrix(0.05,0,0,0.05,25.950000000000003,0)" xlink:href="#aG"/></g><use transform="matrix(0.05,0,0,0.05,0,0)" xlink:href="#aF" id="s"/><g id="t"><use transform="matrix(0.05,0,0,0.05,0,0)" xlink:href="#as"/><use transform="matrix(0.05,0,0,0.05,10,0)" xlink:href="#aB"/><use transform="matrix(0.05,0,0,0.05,13.949999999999998,0)" xlink:href="#av"/><use transform="matrix(0.05,0,0,0.05,18.95,0)" xlink:href="#aG"/></g><path d="M106-169C34-169 62-67 57 0H25v-261h32l-1 103c12-21 28-36 61-36 89 0 53 116 60 194h-32v-121c2-32-8-49-39-48" id="bh"/><g id="u"><use transform="matrix(0.05,0,0,0.05,0,0)" xlink:href="#as"/><use transform="matrix(0.05,0,0,0.05,10,0)" xlink:href="#aE"/><use transform="matrix(0.05,0,0,0.05,20,0)" xlink:href="#ax"/><use transform="matrix(0.05,0,0,0.05,29,0)" xlink:href="#bh"/><use transform="matrix(0.05,0,0,0.05,39,0)" xlink:href="#aG"/></g><path d="M101-234c-31-9-42 10-38 44h38v23H63V0H32v-167H5v-23h27c-7-52 17-82 69-68v24" id="bi"/><g id="v"><use transform="matrix(0.05,0,0,0.05,0,0)" xlink:href="#bi"/><use transform="matrix(0.05,0,0,0.05,5,0)" xlink:href="#as"/><use transform="matrix(0.05,0,0,0.05,15,0)" xlink:href="#ax"/><use transform="matrix(0.05,0,0,0.05,24,0)" xlink:href="#av"/><use transform="matrix(0.05,0,0,0.05,29,0)" xlink:href="#aG"/><use transform="matrix(0.05,0,0,0.05,39,0)" xlink:href="#aw"/></g><path d="M108 0H70L1-190h34L89-25l56-165h34" id="bj"/><g id="w"><use transform="matrix(0.05,0,0,0.05,0,0)" xlink:href="#ax"/><use transform="matrix(0.05,0,0,0.05,9,0)" xlink:href="#aG"/><use transform="matrix(0.05,0,0,0.05,19,0)" xlink:href="#aE"/><use transform="matrix(0.05,0,0,0.05,29,0)" xlink:href="#bj"/><use transform="matrix(0.05,0,0,0.05,38,0)" xlink:href="#aI"/><use transform="matrix(0.05,0,0,0.05,48,0)" xlink:href="#aw"/><use transform="matrix(0.05,0,0,0.05,53.95,0)" xlink:href="#au"/><use transform="matrix(0.05,0,0,0.05,62.95,0)" xlink:href="#aC"/><use transform="matrix(0.05,0,0,0.05,66.9,0)" xlink:href="#aG"/><use transform="matrix(0.05,0,0,0.05,76.9,0)" xlink:href="#aE"/></g><g id="x"><use transform="matrix(0.05,0,0,0.05,0,0)" xlink:href="#av"/><use transform="matrix(0.05,0,0,0.05,5,0)" xlink:href="#as"/><use transform="matrix(0.05,0,0,0.05,15,0)" xlink:href="#aN"/><use transform="matrix(0.05,0,0,0.05,29.950000000000003,0)" xlink:href="#as"/><use transform="matrix(0.05,0,0,0.05,39.95,0)" xlink:href="#aE"/><use transform="matrix(0.05,0,0,0.05,49.95,0)" xlink:href="#aG"/><use transform="matrix(0.05,0,0,0.05,59.95,0)" xlink:href="#aR"/><use transform="matrix(0.05,0,0,0.05,65.9,0)" xlink:href="#aP"/></g><path d="M127-220V0H93v-220H8v-28h204v28h-85" id="bk"/><path d="M141 0L90-78 38 0H4l68-98-65-92h35l48 74 47-74h35l-64 92 68 98h-35" id="bl"/><g id="y"><use transform="matrix(0.05,0,0,0.05,0,0)" xlink:href="#bk"/><use transform="matrix(0.05,0,0,0.05,8.950000000000001,0)" xlink:href="#aI"/><use transform="matrix(0.05,0,0,0.05,18.950000000000003,0)" xlink:href="#bl"/><use transform="matrix(0.05,0,0,0.05,27.950000000000003,0)" xlink:href="#av"/><use transform="matrix(0.05,0,0,0.05,32.95,0)" xlink:href="#aG"/></g><g id="z"><use transform="matrix(0.05,0,0,0.05,0,0)" xlink:href="#ax"/><use transform="matrix(0.05,0,0,0.05,9,0)" xlink:href="#aG"/><use transform="matrix(0.05,0,0,0.05,19,0)" xlink:href="#aE"/><use transform="matrix(0.05,0,0,0.05,29,0)" xlink:href="#av"/><use transform="matrix(0.05,0,0,0.05,34,0)" xlink:href="#aI"/><use transform="matrix(0.05,0,0,0.05,44,0)" xlink:href="#aE"/><use transform="matrix(0.05,0,0,0.05,54,0)" xlink:href="#aC"/><use transform="matrix(0.05,0,0,0.05,57.95,0)" xlink:href="#aV"/><use transform="matrix(0.05,0,0,0.05,67.95,0)" xlink:href="#aG"/></g><g id="A"><use transform="matrix(0.05,0,0,0.05,0,0)" xlink:href="#be"/><use transform="matrix(0.05,0,0,0.05,11.65,0)" xlink:href="#aC"/><use transform="matrix(0.05,0,0,0.05,15.600000000000001,0)" xlink:href="#aV"/><use transform="matrix(0.05,0,0,0.05,25.6,0)" xlink:href="#aI"/><use transform="matrix(0.05,0,0,0.05,35.6,0)" xlink:href="#aG"/></g><path d="M190 0L58-211 59 0H30v-248h39L202-35l-2-213h31V0h-41" id="bm"/><g id="B"><use transform="matrix(0.05,0,0,0.05,0,0)" xlink:href="#bm"/><use transform="matrix(0.05,0,0,0.05,12.950000000000001,0)" xlink:href="#aG"/><use transform="matrix(0.05,0,0,0.05,22.950000000000003,0)" xlink:href="#aw"/><use transform="matrix(0.05,0,0,0.05,28.900000000000002,0)" xlink:href="#aN"/><use transform="matrix(0.05,0,0,0.05,43.85,0)" xlink:href="#as"/><use transform="matrix(0.05,0,0,0.05,53.85,0)" xlink:href="#aB"/></g><g id="C"><use transform="matrix(0.05,0,0,0.05,0,0)" xlink:href="#aV"/><use transform="matrix(0.05,0,0,0.05,10,0)" xlink:href="#aA"/><use transform="matrix(0.05,0,0,0.05,20,0)" xlink:href="#aw"/><use transform="matrix(0.05,0,0,0.05,25.950000000000003,0)" xlink:href="#as"/><use transform="matrix(0.05,0,0,0.05,35.95,0)" xlink:href="#ax"/><use transform="matrix(0.05,0,0,0.05,44.95,0)" xlink:href="#aC"/><use transform="matrix(0.05,0,0,0.05,48.900000000000006,0)" xlink:href="#aD"/><use transform="matrix(0.05,0,0,0.05,58.900000000000006,0)" xlink:href="#aE"/></g><path d="M197 0v-115H63V0H30v-248h33v105h134v-105h34V0h-34" id="bn"/><g id="D"><use transform="matrix(0.05,0,0,0.05,0,0)" xlink:href="#bn"/><use transform="matrix(0.05,0,0,0.05,12.950000000000001,0)" xlink:href="#aJ"/></g><path d="M232-93c-1 65-40 97-104 97C67 4 28-28 28-90v-158h33c8 89-33 224 67 224 102 0 64-133 71-224h33v155" id="bo"/><g id="E"><use transform="matrix(0.05,0,0,0.05,0,0)" xlink:href="#bo"/><use transform="matrix(0.05,0,0,0.05,12.950000000000001,0)" xlink:href="#au"/><use transform="matrix(0.05,0,0,0.05,21.950000000000003,0)" xlink:href="#aA"/><use transform="matrix(0.05,0,0,0.05,31.950000000000003,0)" xlink:href="#as"/><use transform="matrix(0.05,0,0,0.05,41.95,0)" xlink:href="#aw"/><use transform="matrix(0.05,0,0,0.05,47.900000000000006,0)" xlink:href="#aC"/><use transform="matrix(0.05,0,0,0.05,51.85,0)" xlink:href="#aG"/><use transform="matrix(0.05,0,0,0.05,61.85,0)" xlink:href="#au"/></g><path d="M177-190C167-65 218 103 67 71c-23-6-38-20-44-43l32-5c15 47 100 32 89-28v-30C133-14 115 1 83 1 29 1 15-40 15-95c0-56 16-97 71-98 29-1 48 16 59 35 1-10 0-23 2-32h30zM94-22c36 0 50-32 50-73 0-42-14-75-50-75-39 0-46 34-46 75s6 73 46 73" id="bp"/><g id="F"><use transform="matrix(0.05,0,0,0.05,0,0)" xlink:href="#as"/><use transform="matrix(0.05,0,0,0.05,10,0)" xlink:href="#aN"/><use transform="matrix(0.05,0,0,0.05,24.950000000000003,0)" xlink:href="#aC"/><use transform="matrix(0.05,0,0,0.05,28.900000000000002,0)" xlink:href="#bp"/><use transform="matrix(0.05,0,0,0.05,38.900000000000006,0)" xlink:href="#aG"/><use transform="matrix(0.05,0,0,0.05,48.900000000000006,0)" xlink:href="#au"/></g><g id="G"><use transform="matrix(0.05,0,0,0.05,0,0)" xlink:href="#aM"/><use transform="matrix(0.05,0,0,0.05,10,0)" xlink:href="#aA"/><use transform="matrix(0.05,0,0,0.05,20,0)" xlink:href="#at"/><use transform="matrix(0.05,0,0,0.05,30,0)" xlink:href="#aB"/><use transform="matrix(0.05,0,0,0.05,33.95,0)" xlink:href="#aC"/><use transform="matrix(0.05,0,0,0.05,37.900000000000006,0)" xlink:href="#ax"/><use transform="matrix(0.05,0,0,0.05,46.900000000000006,0)" xlink:href="#as"/><use transform="matrix(0.05,0,0,0.05,56.900000000000006,0)" xlink:href="#ax"/><use transform="matrix(0.05,0,0,0.05,65.9,0)" xlink:href="#aC"/><use transform="matrix(0.05,0,0,0.05,69.85000000000001,0)" xlink:href="#aG"/><use transform="matrix(0.05,0,0,0.05,79.85000000000001,0)" xlink:href="#aE"/><use transform="matrix(0.05,0,0,0.05,89.85000000000001,0)" xlink:href="#aI"/><use transform="matrix(0.05,0,0,0.05,99.85000000000001,0)" xlink:href="#au"/></g><g id="H"><use transform="matrix(0.05,0,0,0.05,0,0)" xlink:href="#aO"/><use transform="matrix(0.05,0,0,0.05,10,0)" xlink:href="#aP"/></g><path d="M140-251c81 0 123 46 123 126C263-46 219 4 140 4 59 4 17-45 17-125s42-126 123-126zm0 227c63 0 89-41 89-101s-29-99-89-99c-61 0-89 39-89 99S79-25 140-24" id="bq"/><g id="I"><use transform="matrix(0.05,0,0,0.05,0,0)" xlink:href="#aI"/><use transform="matrix(0.05,0,0,0.05,10,0)" xlink:href="#au"/><use transform="matrix(0.05,0,0,0.05,19,0)" xlink:href="#aM"/><use transform="matrix(0.05,0,0,0.05,29,0)" xlink:href="#as"/><use transform="matrix(0.05,0,0,0.05,39,0)" xlink:href="#ax"/><use transform="matrix(0.05,0,0,0.05,48,0)" xlink:href="#aC"/><use transform="matrix(0.05,0,0,0.05,51.95,0)" xlink:href="#aG"/><use transform="matrix(0.05,0,0,0.05,61.95,0)" xlink:href="#bq"/><use transform="matrix(0.05,0,0,0.05,75.95,0)" xlink:href="#ax"/><use transform="matrix(0.05,0,0,0.05,84.95,0)" xlink:href="#aA"/><use transform="matrix(0.05,0,0,0.05,94.95,0)" xlink:href="#aM"/><use transform="matrix(0.05,0,0,0.05,104.95,0)" xlink:href="#as"/><use transform="matrix(0.05,0,0,0.05,114.95,0)" xlink:href="#aV"/><use transform="matrix(0.05,0,0,0.05,124.95,0)" xlink:href="#aG"/><use transform="matrix(0.05,0,0,0.05,134.95,0)" xlink:href="#aR"/><use transform="matrix(0.05,0,0,0.05,140.89999999999998,0)" xlink:href="#aP"/></g><g id="J"><use transform="matrix(0.05,0,0,0.05,0,0)" xlink:href="#aS"/><use transform="matrix(0.05,0,0,0.05,10,0)" xlink:href="#aP"/></g><g id="K"><use transform="matrix(0.05,0,0,0.05,0,0)" xlink:href="#aV"/><use transform="matrix(0.05,0,0,0.05,10,0)" xlink:href="#as"/><use transform="matrix(0.05,0,0,0.05,20,0)" xlink:href="#aw"/><use transform="matrix(0.05,0,0,0.05,25.950000000000003,0)" xlink:href="#aK"/><use transform="matrix(0.05,0,0,0.05,40.9,0)" xlink:href="#aI"/><use transform="matrix(0.05,0,0,0.05,50.9,0)" xlink:href="#aL"/><use transform="matrix(0.05,0,0,0.05,64.9,0)" xlink:href="#aA"/><use transform="matrix(0.05,0,0,0.05,74.9,0)" xlink:href="#au"/><use transform="matrix(0.05,0,0,0.05,83.9,0)" xlink:href="#av"/><use transform="matrix(0.05,0,0,0.05,88.9,0)" xlink:href="#as"/><use transform="matrix(0.05,0,0,0.05,98.9,0)" xlink:href="#aR"/><use transform="matrix(0.05,0,0,0.05,104.85000000000001,0)" xlink:href="#aM"/><use transform="matrix(0.05,0,0,0.05,114.85000000000001,0)" xlink:href="#aA"/><use transform="matrix(0.05,0,0,0.05,124.85000000000001,0)" xlink:href="#at"/><use transform="matrix(0.05,0,0,0.05,134.85000000000002,0)" xlink:href="#aB"/><use transform="matrix(0.05,0,0,0.05,138.8,0)" xlink:href="#aC"/><use transform="matrix(0.05,0,0,0.05,142.75,0)" xlink:href="#ax"/><use transform="matrix(0.05,0,0,0.05,151.75,0)" xlink:href="#as"/><use transform="matrix(0.05,0,0,0.05,161.75,0)" xlink:href="#ax"/><use transform="matrix(0.05,0,0,0.05,170.75,0)" xlink:href="#aC"/><use transform="matrix(0.05,0,0,0.05,174.7,0)" xlink:href="#aD"/><use transform="matrix(0.05,0,0,0.05,184.7,0)" xlink:href="#aE"/><use transform="matrix(0.05,0,0,0.05,194.7,0)" xlink:href="#aP"/></g><path d="M126-127c33 6 58 20 58 59 0 88-139 92-164 29-3-8-5-16-6-25l32-3c6 27 21 44 54 44 32 0 52-15 52-46 0-38-36-46-79-43v-28c39 1 72-4 72-42 0-27-17-43-46-43-28 0-47 15-49 41l-32-3c6-42 35-63 81-64 48-1 79 21 79 65 0 36-21 52-52 59" id="br"/><g id="L"><use transform="matrix(0.05,0,0,0.05,0,0)" xlink:href="#br"/><use transform="matrix(0.05,0,0,0.05,10,0)" xlink:href="#aP"/></g><path d="M205 0l-28-72H64L36 0H1l101-248h38L239 0h-34zm-38-99l-47-123c-12 45-31 82-46 123h93" id="bs"/><g id="M"><use transform="matrix(0.05,0,0,0.05,0,0)" xlink:href="#aN"/><use transform="matrix(0.05,0,0,0.05,14.950000000000001,0)" xlink:href="#as"/><use transform="matrix(0.05,0,0,0.05,24.950000000000003,0)" xlink:href="#au"/><use transform="matrix(0.05,0,0,0.05,33.95,0)" xlink:href="#bs"/><use transform="matrix(0.05,0,0,0.05,45.95,0)" xlink:href="#aN"/><use transform="matrix(0.05,0,0,0.05,60.900000000000006,0)" xlink:href="#aC"/><use transform="matrix(0.05,0,0,0.05,64.85000000000001,0)" xlink:href="#au"/><use transform="matrix(0.05,0,0,0.05,73.85000000000001,0)" xlink:href="#av"/><use transform="matrix(0.05,0,0,0.05,78.85000000000001,0)" xlink:href="#aG"/><use transform="matrix(0.05,0,0,0.05,88.85000000000001,0)" xlink:href="#au"/><use transform="matrix(0.05,0,0,0.05,97.85000000000001,0)" xlink:href="#aG"/><use transform="matrix(0.05,0,0,0.05,107.85000000000001,0)" xlink:href="#aH"/><use transform="matrix(0.05,0,0,0.05,121.85000000000001,0)" xlink:href="#aA"/><use transform="matrix(0.05,0,0,0.05,131.85000000000002,0)" xlink:href="#aI"/><use transform="matrix(0.05,0,0,0.05,141.85000000000002,0)" xlink:href="#aR"/><use transform="matrix(0.05,0,0,0.05,147.8,0)" xlink:href="#aA"/><use transform="matrix(0.05,0,0,0.05,157.8,0)" xlink:href="#au"/><use transform="matrix(0.05,0,0,0.05,166.8,0)" xlink:href="#aA"/><use transform="matrix(0.05,0,0,0.05,176.8,0)" xlink:href="#as"/><use transform="matrix(0.05,0,0,0.05,186.8,0)" xlink:href="#aw"/><use transform="matrix(0.05,0,0,0.05,192.75,0)" xlink:href="#aC"/><use transform="matrix(0.05,0,0,0.05,196.7,0)" xlink:href="#aG"/><use transform="matrix(0.05,0,0,0.05,206.69999999999996,0)" xlink:href="#aP"/></g><g id="N"><use transform="matrix(0.05,0,0,0.05,0,0)" xlink:href="#ax"/><use transform="matrix(0.05,0,0,0.05,9,0)" xlink:href="#as"/><use transform="matrix(0.05,0,0,0.05,19,0)" xlink:href="#aE"/><use transform="matrix(0.05,0,0,0.05,29,0)" xlink:href="#av"/><use transform="matrix(0.05,0,0,0.05,34,0)" xlink:href="#aC"/><use transform="matrix(0.05,0,0,0.05,37.95,0)" xlink:href="#aV"/><use transform="matrix(0.05,0,0,0.05,47.95,0)" xlink:href="#as"/><use transform="matrix(0.05,0,0,0.05,57.95,0)" xlink:href="#aV"/><use transform="matrix(0.05,0,0,0.05,67.95,0)" xlink:href="#aJ"/><use transform="matrix(0.05,0,0,0.05,80.9,0)" xlink:href="#aI"/><use transform="matrix(0.05,0,0,0.05,90.9,0)" xlink:href="#bs"/><use transform="matrix(0.05,0,0,0.05,102.9,0)" xlink:href="#aN"/><use transform="matrix(0.05,0,0,0.05,117.85000000000001,0)" xlink:href="#aC"/><use transform="matrix(0.05,0,0,0.05,121.80000000000001,0)" xlink:href="#bp"/><use transform="matrix(0.05,0,0,0.05,131.8,0)" xlink:href="#aG"/><use transform="matrix(0.05,0,0,0.05,141.8,0)" xlink:href="#au"/><use transform="matrix(0.05,0,0,0.05,150.8,0)" xlink:href="#aR"/><use transform="matrix(0.05,0,0,0.05,156.75,0)" xlink:href="#aP"/></g><g id="O"><use transform="matrix(0.05,0,0,0.05,0,0)" xlink:href="#bc"/><use transform="matrix(0.05,0,0,0.05,10,0)" xlink:href="#aP"/></g><path d="M24-231v-30h32v30H24zM-9 49c24 4 33-6 33-30v-209h32V24c2 40-23 58-65 49V49" id="bt"/><g id="P"><use transform="matrix(0.05,0,0,0.05,0,0)" xlink:href="#aN"/><use transform="matrix(0.05,0,0,0.05,14.950000000000001,0)" xlink:href="#aI"/><use transform="matrix(0.05,0,0,0.05,24.950000000000003,0)" xlink:href="#bt"/><use transform="matrix(0.05,0,0,0.05,28.900000000000002,0)" xlink:href="#aG"/><use transform="matrix(0.05,0,0,0.05,38.900000000000006,0)" xlink:href="#aw"/><use transform="matrix(0.05,0,0,0.05,44.85000000000001,0)" xlink:href="#aI"/><use transform="matrix(0.05,0,0,0.05,54.85,0)" xlink:href="#au"/><use transform="matrix(0.05,0,0,0.05,63.85,0)" xlink:href="#bs"/><use transform="matrix(0.05,0,0,0.05,75.85000000000001,0)" xlink:href="#aN"/><use transform="matrix(0.05,0,0,0.05,90.80000000000001,0)" xlink:href="#aC"/><use transform="matrix(0.05,0,0,0.05,94.75000000000001,0)" xlink:href="#bp"/><use transform="matrix(0.05,0,0,0.05,104.75,0)" xlink:href="#aG"/><use transform="matrix(0.05,0,0,0.05,114.75,0)" xlink:href="#au"/><use transform="matrix(0.05,0,0,0.05,123.75,0)" xlink:href="#aR"/><use transform="matrix(0.05,0,0,0.05,129.70000000000002,0)" xlink:href="#aP"/></g><g id="Q"><use transform="matrix(0.05,0,0,0.05,0,0)" xlink:href="#aI"/><use transform="matrix(0.05,0,0,0.05,10,0)" xlink:href="#au"/><use transform="matrix(0.05,0,0,0.05,19,0)" xlink:href="#aK"/><use transform="matrix(0.05,0,0,0.05,33.95,0)" xlink:href="#aI"/><use transform="matrix(0.05,0,0,0.05,43.95,0)" xlink:href="#bt"/><use transform="matrix(0.05,0,0,0.05,47.900000000000006,0)" xlink:href="#aG"/><use transform="matrix(0.05,0,0,0.05,57.900000000000006,0)" xlink:href="#aw"/><use transform="matrix(0.05,0,0,0.05,63.85,0)" xlink:href="#bs"/><use transform="matrix(0.05,0,0,0.05,75.85000000000001,0)" xlink:href="#aN"/><use transform="matrix(0.05,0,0,0.05,90.80000000000001,0)" xlink:href="#aC"/><use transform="matrix(0.05,0,0,0.05,94.75000000000001,0)" xlink:href="#bp"/><use transform="matrix(0.05,0,0,0.05,104.75,0)" xlink:href="#aG"/><use transform="matrix(0.05,0,0,0.05,114.75,0)" xlink:href="#aR"/><use transform="matrix(0.05,0,0,0.05,120.7,0)" xlink:href="#as"/><use transform="matrix(0.05,0,0,0.05,130.70000000000002,0)" xlink:href="#aN"/><use transform="matrix(0.05,0,0,0.05,145.65,0)" xlink:href="#aC"/><use transform="matrix(0.05,0,0,0.05,149.6,0)" xlink:href="#bp"/><use transform="matrix(0.05,0,0,0.05,159.6,0)" xlink:href="#aG"/><use transform="matrix(0.05,0,0,0.05,169.6,0)" xlink:href="#aP"/></g><g id="R"><use transform="matrix(0.05,0,0,0.05,0,0)" xlink:href="#aI"/><use transform="matrix(0.05,0,0,0.05,10,0)" xlink:href="#au"/><use transform="matrix(0.05,0,0,0.05,19,0)" xlink:href="#bs"/><use transform="matrix(0.05,0,0,0.05,31,0)" xlink:href="#aN"/><use transform="matrix(0.05,0,0,0.05,45.95,0)" xlink:href="#aC"/><use transform="matrix(0.05,0,0,0.05,49.900000000000006,0)" xlink:href="#bp"/><use transform="matrix(0.05,0,0,0.05,59.900000000000006,0)" xlink:href="#aG"/><use transform="matrix(0.05,0,0,0.05,69.9,0)" xlink:href="#aJ"/><use transform="matrix(0.05,0,0,0.05,82.85000000000001,0)" xlink:href="#aI"/><use transform="matrix(0.05,0,0,0.05,92.85000000000001,0)" xlink:href="#aR"/><use transform="matrix(0.05,0,0,0.05,98.80000000000001,0)" xlink:href="#aA"/><use transform="matrix(0.05,0,0,0.05,108.80000000000001,0)" xlink:href="#au"/><use transform="matrix(0.05,0,0,0.05,117.80000000000001,0)" xlink:href="#aA"/><use transform="matrix(0.05,0,0,0.05,127.80000000000001,0)" xlink:href="#as"/><use transform="matrix(0.05,0,0,0.05,137.8,0)" xlink:href="#aw"/><use transform="matrix(0.05,0,0,0.05,143.75,0)" xlink:href="#aC"/><use transform="matrix(0.05,0,0,0.05,147.7,0)" xlink:href="#aG"/><use transform="matrix(0.05,0,0,0.05,157.7,0)" xlink:href="#aP"/></g><g id="S"><use transform="matrix(0.05,0,0,0.05,0,0)" xlink:href="#bf"/><use transform="matrix(0.05,0,0,0.05,10,0)" xlink:href="#aP"/></g><g id="T"><use transform="matrix(0.05,0,0,0.05,0,0)" xlink:href="#as"/><use transform="matrix(0.05,0,0,0.05,10,0)" xlink:href="#aN"/><use transform="matrix(0.05,0,0,0.05,24.950000000000003,0)" xlink:href="#aC"/><use transform="matrix(0.05,0,0,0.05,28.900000000000002,0)" xlink:href="#bp"/><use transform="matrix(0.05,0,0,0.05,38.900000000000006,0)" xlink:href="#aG"/><use transform="matrix(0.05,0,0,0.05,48.900000000000006,0)" xlink:href="#aK"/><use transform="matrix(0.05,0,0,0.05,63.85,0)" xlink:href="#as"/><use transform="matrix(0.05,0,0,0.05,73.85000000000001,0)" xlink:href="#au"/><use transform="matrix(0.05,0,0,0.05,82.85000000000001,0)" xlink:href="#az"/><use transform="matrix(0.05,0,0,0.05,94.85000000000001,0)" xlink:href="#aG"/><use transform="matrix(0.05,0,0,0.05,104.85000000000001,0)" xlink:href="#aM"/><use transform="matrix(0.05,0,0,0.05,114.85000000000001,0)" xlink:href="#aA"/><use transform="matrix(0.05,0,0,0.05,124.85000000000001,0)" xlink:href="#aB"/><use transform="matrix(0.05,0,0,0.05,128.8,0)" xlink:href="#as"/><use transform="matrix(0.05,0,0,0.05,138.8,0)" xlink:href="#aw"/><use transform="matrix(0.05,0,0,0.05,144.75,0)" xlink:href="#aR"/><use transform="matrix(0.05,0,0,0.05,150.7,0)" xlink:href="#aP"/></g><g id="U"><use transform="matrix(0.05,0,0,0.05,0,0)" xlink:href="#ax"/><use transform="matrix(0.05,0,0,0.05,9,0)" xlink:href="#as"/><use transform="matrix(0.05,0,0,0.05,19,0)" xlink:href="#aE"/><use transform="matrix(0.05,0,0,0.05,29,0)" xlink:href="#av"/><use transform="matrix(0.05,0,0,0.05,34,0)" xlink:href="#aC"/><use transform="matrix(0.05,0,0,0.05,37.95,0)" xlink:href="#aV"/><use transform="matrix(0.05,0,0,0.05,47.95,0)" xlink:href="#as"/><use transform="matrix(0.05,0,0,0.05,57.95,0)" xlink:href="#aV"/><use transform="matrix(0.05,0,0,0.05,67.95,0)" xlink:href="#aJ"/><use transform="matrix(0.05,0,0,0.05,80.9,0)" xlink:href="#aI"/><use transform="matrix(0.05,0,0,0.05,90.9,0)" xlink:href="#aK"/><use transform="matrix(0.05,0,0,0.05,105.85000000000001,0)" xlink:href="#aI"/><use transform="matrix(0.05,0,0,0.05,115.85000000000001,0)" xlink:href="#aL"/><use transform="matrix(0.05,0,0,0.05,129.85000000000002,0)" xlink:href="#aA"/><use transform="matrix(0.05,0,0,0.05,139.85000000000002,0)" xlink:href="#au"/><use transform="matrix(0.05,0,0,0.05,148.85000000000002,0)" xlink:href="#av"/><use transform="matrix(0.05,0,0,0.05,153.85000000000002,0)" xlink:href="#as"/><use transform="matrix(0.05,0,0,0.05,163.85000000000002,0)" xlink:href="#aR"/><use transform="matrix(0.05,0,0,0.05,169.8,0)" xlink:href="#aP"/></g><path d="M110-160c48 1 74 30 74 79 0 53-28 85-80 85-65 0-83-55-86-122-5-90 50-162 133-122 14 7 22 21 27 39l-31 6c-5-40-67-38-82-6-9 19-15 44-15 74 11-20 30-34 60-33zm-7 138c34 0 49-23 49-58s-16-56-50-56c-29 0-50 16-49 49 1 36 15 65 50 65" id="bu"/><g id="V"><use transform="matrix(0.05,0,0,0.05,0,0)" xlink:href="#bu"/><use transform="matrix(0.05,0,0,0.05,10,0)" xlink:href="#aP"/></g><g id="W"><use transform="matrix(0.05,0,0,0.05,0,0)" xlink:href="#aM"/><use transform="matrix(0.05,0,0,0.05,10,0)" xlink:href="#aA"/><use transform="matrix(0.05,0,0,0.05,20,0)" xlink:href="#aI"/><use transform="matrix(0.05,0,0,0.05,30,0)" xlink:href="#aV"/><use transform="matrix(0.05,0,0,0.05,40,0)" xlink:href="#aI"/><use transform="matrix(0.05,0,0,0.05,50,0)" xlink:href="#be"/><use transform="matrix(0.05,0,0,0.05,61,0)" xlink:href="#aI"/><use transform="matrix(0.05,0,0,0.05,71,0)" xlink:href="#aw"/><use transform="matrix(0.05,0,0,0.05,76.95,0)" xlink:href="#aR"/><use transform="matrix(0.05,0,0,0.05,82.9,0)" xlink:href="#aM"/><use transform="matrix(0.05,0,0,0.05,92.9,0)" xlink:href="#aA"/><use transform="matrix(0.05,0,0,0.05,102.9,0)" xlink:href="#at"/><use transform="matrix(0.05,0,0,0.05,112.9,0)" xlink:href="#aB"/><use transform="matrix(0.05,0,0,0.05,116.85000000000001,0)" xlink:href="#aC"/><use transform="matrix(0.05,0,0,0.05,120.80000000000001,0)" xlink:href="#ax"/><use transform="matrix(0.05,0,0,0.05,129.8,0)" xlink:href="#as"/><use transform="matrix(0.05,0,0,0.05,139.8,0)" xlink:href="#ax"/><use transform="matrix(0.05,0,0,0.05,148.8,0)" xlink:href="#aC"/><use transform="matrix(0.05,0,0,0.05,152.75,0)" xlink:href="#aG"/><use transform="matrix(0.05,0,0,0.05,162.75,0)" xlink:href="#aE"/><use transform="matrix(0.05,0,0,0.05,172.75,0)" xlink:href="#aP"/></g><path d="M64 0c3-98 48-159 88-221H18v-27h164v26C143-157 98-101 97 0H64" id="bv"/><g id="X"><use transform="matrix(0.05,0,0,0.05,0,0)" xlink:href="#bv"/><use transform="matrix(0.05,0,0,0.05,10,0)" xlink:href="#aP"/></g><path d="M68-38c1 34 0 65-14 84H32c9-13 17-26 17-46H33v-38h35" id="bw"/><g id="Y"><use transform="matrix(0.05,0,0,0.05,0,0)" xlink:href="#aM"/><use transform="matrix(0.05,0,0,0.05,10,0)" xlink:href="#aA"/><use transform="matrix(0.05,0,0,0.05,20,0)" xlink:href="#at"/><use transform="matrix(0.05,0,0,0.05,30,0)" xlink:href="#aB"/><use transform="matrix(0.05,0,0,0.05,33.95,0)" xlink:href="#aC"/><use transform="matrix(0.05,0,0,0.05,37.900000000000006,0)" xlink:href="#ax"/><use transform="matrix(0.05,0,0,0.05,46.900000000000006,0)" xlink:href="#as"/><use transform="matrix(0.05,0,0,0.05,56.900000000000006,0)" xlink:href="#aw"/><use transform="matrix(0.05,0,0,0.05,62.85,0)" xlink:href="#aR"/><use transform="matrix(0.05,0,0,0.05,68.80000000000001,0)" xlink:href="#ax"/><use transform="matrix(0.05,0,0,0.05,77.80000000000001,0)" xlink:href="#aG"/><use transform="matrix(0.05,0,0,0.05,87.80000000000001,0)" xlink:href="#aE"/><use transform="matrix(0.05,0,0,0.05,97.80000000000001,0)" xlink:href="#av"/><use transform="matrix(0.05,0,0,0.05,102.80000000000001,0)" xlink:href="#aI"/><use transform="matrix(0.05,0,0,0.05,112.80000000000001,0)" xlink:href="#aE"/><use transform="matrix(0.05,0,0,0.05,122.80000000000001,0)" xlink:href="#aC"/><use transform="matrix(0.05,0,0,0.05,126.75,0)" xlink:href="#aV"/><use transform="matrix(0.05,0,0,0.05,136.75,0)" xlink:href="#aG"/><use transform="matrix(0.05,0,0,0.05,146.75,0)" xlink:href="#bw"/></g><g id="Z"><use transform="matrix(0.05,0,0,0.05,0,0)" xlink:href="#aM"/><use transform="matrix(0.05,0,0,0.05,10,0)" xlink:href="#aI"/><use transform="matrix(0.05,0,0,0.05,20,0)" xlink:href="#aw"/><use transform="matrix(0.05,0,0,0.05,25.950000000000003,0)" xlink:href="#aN"/><use transform="matrix(0.05,0,0,0.05,40.9,0)" xlink:href="#aC"/><use transform="matrix(0.05,0,0,0.05,44.85,0)" xlink:href="#au"/><use transform="matrix(0.05,0,0,0.05,53.85,0)" xlink:href="#aG"/><use transform="matrix(0.05,0,0,0.05,63.85,0)" xlink:href="#au"/><use transform="matrix(0.05,0,0,0.05,72.85,0)" xlink:href="#aP"/></g><path d="M80-196l47-18 7 23-49 13 32 44-20 13-27-46-27 45-21-12 33-44-49-13 8-23 47 19-2-53h23" id="bx"/><use transform="matrix(0.08641975308641976,0,0,0.08641975308641976,0,0)" xlink:href="#bx" id="aa"/><g id="ab"><use transform="matrix(0.05,0,0,0.05,0,0)" xlink:href="#az"/><use transform="matrix(0.05,0,0,0.05,12,0)" xlink:href="#aI"/><use transform="matrix(0.05,0,0,0.05,22,0)" xlink:href="#aw"/><use transform="matrix(0.05,0,0,0.05,27.950000000000003,0)" xlink:href="#aN"/><use transform="matrix(0.05,0,0,0.05,42.9,0)" xlink:href="#aC"/><use transform="matrix(0.05,0,0,0.05,46.85,0)" xlink:href="#au"/><use transform="matrix(0.05,0,0,0.05,55.85,0)" xlink:href="#aG"/></g><g id="ac"><use transform="matrix(0.05,0,0,0.05,0,0)" xlink:href="#aM"/><use transform="matrix(0.05,0,0,0.05,10,0)" xlink:href="#aA"/><use transform="matrix(0.05,0,0,0.05,20,0)" xlink:href="#aI"/><use transform="matrix(0.05,0,0,0.05,30,0)" xlink:href="#aV"/><use transform="matrix(0.05,0,0,0.05,40,0)" xlink:href="#aI"/><use transform="matrix(0.05,0,0,0.05,50,0)" xlink:href="#be"/><use transform="matrix(0.05,0,0,0.05,61,0)" xlink:href="#aI"/><use transform="matrix(0.05,0,0,0.05,71,0)" xlink:href="#aw"/><use transform="matrix(0.05,0,0,0.05,76.95,0)" xlink:href="#aR"/><use transform="matrix(0.05,0,0,0.05,82.9,0)" xlink:href="#as"/><use transform="matrix(0.05,0,0,0.05,92.9,0)" xlink:href="#aA"/><use transform="matrix(0.05,0,0,0.05,102.9,0)" xlink:href="#av"/><use transform="matrix(0.05,0,0,0.05,107.9,0)" xlink:href="#aG"/><use transform="matrix(0.05,0,0,0.05,117.9,0)" xlink:href="#aw"/><use transform="matrix(0.05,0,0,0.05,122.85000000000001,0)" xlink:href="#bw"/></g><g id="ad"><use transform="matrix(0.05,0,0,0.05,0,0)" xlink:href="#aA"/><use transform="matrix(0.05,0,0,0.05,10,0)" xlink:href="#au"/><use transform="matrix(0.05,0,0,0.05,19,0)" xlink:href="#aA"/><use transform="matrix(0.05,0,0,0.05,29,0)" xlink:href="#as"/><use transform="matrix(0.05,0,0,0.05,39,0)" xlink:href="#aw"/><use transform="matrix(0.05,0,0,0.05,44.95,0)" xlink:href="#aC"/><use transform="matrix(0.05,0,0,0.05,48.900000000000006,0)" xlink:href="#aG"/><use transform="matrix(0.05,0,0,0.05,58.900000000000006,0)" xlink:href="#aP"/></g><g id="ae"><use transform="matrix(0.05,0,0,0.05,0,0)" xlink:href="#az"/><use transform="matrix(0.05,0,0,0.05,12,0)" xlink:href="#aA"/><use transform="matrix(0.05,0,0,0.05,22,0)" xlink:href="#at"/><use transform="matrix(0.05,0,0,0.05,32,0)" xlink:href="#aB"/><use transform="matrix(0.05,0,0,0.05,35.95,0)" xlink:href="#aC"/><use transform="matrix(0.05,0,0,0.05,39.900000000000006,0)" xlink:href="#ax"/><use transform="matrix(0.05,0,0,0.05,48.900000000000006,0)" xlink:href="#aG"/></g><g id="af"><use transform="matrix(0.05,0,0,0.05,0,0)" xlink:href="#bd"/><use transform="matrix(0.05,0,0,0.05,12,0)" xlink:href="#aD"/><use transform="matrix(0.05,0,0,0.05,22,0)" xlink:href="#aB"/><use transform="matrix(0.05,0,0,0.05,25.950000000000003,0)" xlink:href="#aG"/></g><g id="ag"><use transform="matrix(0.05,0,0,0.05,0,0)" xlink:href="#bs"/><use transform="matrix(0.05,0,0,0.05,12,0)" xlink:href="#aN"/><use transform="matrix(0.05,0,0,0.05,26.950000000000003,0)" xlink:href="#aC"/><use transform="matrix(0.05,0,0,0.05,30.900000000000002,0)" xlink:href="#bp"/><use transform="matrix(0.05,0,0,0.05,40.900000000000006,0)" xlink:href="#aG"/><use transform="matrix(0.05,0,0,0.05,50.900000000000006,0)" xlink:href="#au"/></g><g id="ah"><use transform="matrix(0.05,0,0,0.05,0,0)" xlink:href="#az"/><use transform="matrix(0.05,0,0,0.05,12,0)" xlink:href="#aw"/><use transform="matrix(0.05,0,0,0.05,17.95,0)" xlink:href="#aC"/><use transform="matrix(0.05,0,0,0.05,21.9,0)" xlink:href="#bj"/><use transform="matrix(0.05,0,0,0.05,30.899999999999995,0)" xlink:href="#as"/><use transform="matrix(0.05,0,0,0.05,40.9,0)" xlink:href="#aV"/><use transform="matrix(0.05,0,0,0.05,50.9,0)" xlink:href="#aG"/></g><g id="ai"><use transform="matrix(0.05,0,0,0.05,0,0)" xlink:href="#ax"/><use transform="matrix(0.05,0,0,0.05,9,0)" xlink:href="#aG"/><use transform="matrix(0.05,0,0,0.05,19,0)" xlink:href="#aE"/></g><path d="M266 0h-40l-56-210L115 0H75L2-248h35L96-30l15-64 43-154h32l59 218 59-218h35" id="by"/><g id="aj"><use transform="matrix(0.05,0,0,0.05,0,0)" xlink:href="#by"/><use transform="matrix(0.05,0,0,0.05,16.95,0)" xlink:href="#bh"/><use transform="matrix(0.05,0,0,0.05,26.950000000000003,0)" xlink:href="#aC"/><use transform="matrix(0.05,0,0,0.05,30.899999999999995,0)" xlink:href="#av"/><use transform="matrix(0.05,0,0,0.05,35.9,0)" xlink:href="#aI"/><use transform="matrix(0.05,0,0,0.05,45.9,0)" xlink:href="#aB"/><use transform="matrix(0.05,0,0,0.05,49.85,0)" xlink:href="#aC"/><use transform="matrix(0.05,0,0,0.05,53.800000000000004,0)" xlink:href="#au"/><use transform="matrix(0.05,0,0,0.05,62.800000000000004,0)" xlink:href="#av"/></g><path d="M206 0h-36l-40-164L89 0H53L-1-190h32L70-26l43-164h34l41 164 42-164h31" id="bz"/><g id="ak"><use transform="matrix(0.05,0,0,0.05,0,0)" xlink:href="#bz"/><use transform="matrix(0.05,0,0,0.05,12.950000000000001,0)" xlink:href="#bh"/><use transform="matrix(0.05,0,0,0.05,22.950000000000003,0)" xlink:href="#aC"/><use transform="matrix(0.05,0,0,0.05,26.900000000000002,0)" xlink:href="#av"/><use transform="matrix(0.05,0,0,0.05,31.900000000000002,0)" xlink:href="#aI"/><use transform="matrix(0.05,0,0,0.05,41.900000000000006,0)" xlink:href="#aB"/><use transform="matrix(0.05,0,0,0.05,45.85000000000001,0)" xlink:href="#aC"/><use transform="matrix(0.05,0,0,0.05,49.80000000000001,0)" xlink:href="#au"/><use transform="matrix(0.05,0,0,0.05,58.80000000000001,0)" xlink:href="#av"/></g><path d="M160-131c35 5 61 23 61 61C221 17 115-2 30 0v-248c76 3 177-17 177 60 0 33-19 50-47 57zm-97-11c50-1 110 9 110-42 0-47-63-36-110-37v79zm0 115c55-2 124 14 124-45 0-56-70-42-124-44v89" id="bA"/><path d="M143 0L79-87 56-68V0H24v-261h32v163l83-92h37l-77 82L181 0h-38" id="bB"/><g id="al"><use transform="matrix(0.05,0,0,0.05,0,0)" xlink:href="#bA"/><use transform="matrix(0.05,0,0,0.05,12,0)" xlink:href="#aB"/><use transform="matrix(0.05,0,0,0.05,15.949999999999998,0)" xlink:href="#as"/><use transform="matrix(0.05,0,0,0.05,25.950000000000003,0)" xlink:href="#ax"/><use transform="matrix(0.05,0,0,0.05,34.95,0)" xlink:href="#bB"/><use transform="matrix(0.05,0,0,0.05,43.95,0)" xlink:href="#aB"/><use transform="matrix(0.05,0,0,0.05,47.900000000000006,0)" xlink:href="#aC"/><use transform="matrix(0.05,0,0,0.05,51.85,0)" xlink:href="#au"/><use transform="matrix(0.05,0,0,0.05,60.85,0)" xlink:href="#av"/></g><g id="am"><use transform="matrix(0.05,0,0,0.05,0,0)" xlink:href="#at"/><use transform="matrix(0.05,0,0,0.05,10,0)" xlink:href="#aB"/><use transform="matrix(0.05,0,0,0.05,13.949999999999998,0)" xlink:href="#as"/><use transform="matrix(0.05,0,0,0.05,23.95,0)" xlink:href="#ax"/><use transform="matrix(0.05,0,0,0.05,32.95,0)" xlink:href="#bB"/><use transform="matrix(0.05,0,0,0.05,41.95,0)" xlink:href="#aB"/><use transform="matrix(0.05,0,0,0.05,45.900000000000006,0)" xlink:href="#aC"/><use transform="matrix(0.05,0,0,0.05,49.85000000000001,0)" xlink:href="#au"/><use transform="matrix(0.05,0,0,0.05,58.85,0)" xlink:href="#av"/></g><use transform="matrix(0.07407407407407408,0,0,0.07407407407407408,0,0)" xlink:href="#aO" id="an"/><g id="ao"><use transform="matrix(0.05,0,0,0.05,0,0)" xlink:href="#bi"/><use transform="matrix(0.05,0,0,0.05,5,0)" xlink:href="#aG"/><use transform="matrix(0.05,0,0,0.05,15,0)" xlink:href="#av"/><use transform="matrix(0.05,0,0,0.05,20,0)" xlink:href="#aG"/></g><g id="ap"><use transform="matrix(0.05,0,0,0.05,0,0)" xlink:href="#bi"/><use transform="matrix(0.05,0,0,0.05,5,0)" xlink:href="#as"/><use transform="matrix(0.05,0,0,0.05,15,0)" xlink:href="#ax"/><use transform="matrix(0.05,0,0,0.05,24,0)" xlink:href="#av"/><use transform="matrix(0.05,0,0,0.05,29,0)" xlink:href="#aG"/><use transform="matrix(0.05,0,0,0.05,39,0)" xlink:href="#aw"/></g><g id="aq"><use transform="matrix(0.05,0,0,0.05,0,0)" xlink:href="#ax"/><use transform="matrix(0.05,0,0,0.05,9,0)" xlink:href="#aG"/><use transform="matrix(0.05,0,0,0.05,19,0)" xlink:href="#aE"/><use transform="matrix(0.05,0,0,0.05,29,0)" xlink:href="#bj"/><use transform="matrix(0.05,0,0,0.05,38,0)" xlink:href="#aI"/><use transform="matrix(0.05,0,0,0.05,48,0)" xlink:href="#aw"/><use transform="matrix(0.05,0,0,0.05,53.95,0)" xlink:href="#au"/><use transform="matrix(0.05,0,0,0.05,62.95,0)" xlink:href="#aC"/><use transform="matrix(0.05,0,0,0.05,66.9,0)" xlink:href="#aG"/><use transform="matrix(0.05,0,0,0.05,76.9,0)" xlink:href="#aE"/></g></defs></g></svg>